<svg width="846" height="301" viewBox="0 0 846 301" fill="none" xmlns="http://www.w3.org/2000/svg">
<path d="M86 88.375L111.125 80.875H124.25V169H105.25V100.375L90 104.125L86 88.375ZM163.734 169H143.484V149H163.734V169Z" fill="#003149"/>
<path d="M276.944 29.425L274.244 30.275C274.069 29.175 273.144 27.55 270.769 27.55C268.969 27.55 267.719 28.75 267.719 30.1C267.719 31.225 268.419 32.075 269.794 32.375L272.344 32.9C275.469 33.525 277.144 35.5 277.144 38C277.144 40.75 274.919 43.375 270.869 43.375C266.369 43.375 264.294 40.475 264.019 37.925L266.819 37.125C266.994 38.975 268.319 40.675 270.869 40.675C272.994 40.675 274.094 39.6 274.094 38.225C274.094 37.075 273.244 36.15 271.719 35.825L269.219 35.3C266.519 34.75 264.719 32.975 264.719 30.325C264.719 27.35 267.444 24.9 270.744 24.9C274.919 24.9 276.544 27.45 276.944 29.425ZM281.864 35.575H287.839C287.789 34.15 286.839 32.875 284.839 32.875C283.014 32.875 281.964 34.275 281.864 35.575ZM288.164 38.75L290.614 39.525C289.964 41.65 288.039 43.375 285.114 43.375C281.814 43.375 278.889 40.975 278.889 36.85C278.889 33 281.739 30.45 284.814 30.45C288.564 30.45 290.764 32.925 290.764 36.775C290.764 37.25 290.714 37.65 290.689 37.7H281.789C281.864 39.55 283.314 40.875 285.114 40.875C286.864 40.875 287.764 39.95 288.164 38.75ZM296.435 43H293.535V24.9H296.435V43ZM302.201 35.575H308.176C308.126 34.15 307.176 32.875 305.176 32.875C303.351 32.875 302.301 34.275 302.201 35.575ZM308.501 38.75L310.951 39.525C310.301 41.65 308.376 43.375 305.451 43.375C302.151 43.375 299.226 40.975 299.226 36.85C299.226 33 302.076 30.45 305.151 30.45C308.901 30.45 311.101 32.925 311.101 36.775C311.101 37.25 311.051 37.65 311.026 37.7H302.126C302.201 39.55 303.651 40.875 305.451 40.875C307.201 40.875 308.101 39.95 308.501 38.75ZM319.172 33.125C317.397 33.125 315.822 34.45 315.822 36.9C315.822 39.35 317.397 40.725 319.222 40.725C321.122 40.725 321.997 39.4 322.272 38.475L324.822 39.4C324.247 41.3 322.422 43.375 319.222 43.375C315.647 43.375 312.922 40.6 312.922 36.9C312.922 33.15 315.647 30.45 319.147 30.45C322.422 30.45 324.222 32.5 324.722 34.45L322.122 35.4C321.847 34.325 321.022 33.125 319.172 33.125ZM331.072 27.1V30.825H333.597V33.4H331.072V39.05C331.072 40.125 331.547 40.575 332.622 40.575C333.022 40.575 333.497 40.5 333.622 40.475V42.875C333.447 42.95 332.897 43.15 331.847 43.15C329.597 43.15 328.197 41.8 328.197 39.525V33.4H325.947V30.825H326.572C327.872 30.825 328.447 30 328.447 28.925V27.1H331.072ZM346.404 27.1V30.825H348.929V33.4H346.404V39.05C346.404 40.125 346.879 40.575 347.954 40.575C348.354 40.575 348.829 40.5 348.954 40.475V42.875C348.779 42.95 348.229 43.15 347.179 43.15C344.929 43.15 343.529 41.8 343.529 39.525V33.4H341.279V30.825H341.904C343.204 30.825 343.779 30 343.779 28.925V27.1H346.404ZM354.467 35.85V43H351.567V24.9H354.467V32C355.292 30.925 356.667 30.475 357.942 30.475C360.942 30.475 362.392 32.625 362.392 35.3V43H359.492V35.8C359.492 34.3 358.817 33.1 356.992 33.1C355.392 33.1 354.517 34.3 354.467 35.85ZM367.948 35.575H373.923C373.873 34.15 372.923 32.875 370.923 32.875C369.098 32.875 368.048 34.275 367.948 35.575ZM374.248 38.75L376.698 39.525C376.048 41.65 374.123 43.375 371.198 43.375C367.898 43.375 364.973 40.975 364.973 36.85C364.973 33 367.823 30.45 370.898 30.45C374.648 30.45 376.848 32.925 376.848 36.775C376.848 37.25 376.798 37.65 376.773 37.7H367.873C367.948 39.55 369.398 40.875 371.198 40.875C372.948 40.875 373.848 39.95 374.248 38.75ZM387.77 36.875C387.77 39.2 389.07 40.75 391.045 40.75C392.945 40.75 394.27 39.175 394.27 36.85C394.27 34.525 392.97 33.075 391.07 33.075C389.17 33.075 387.77 34.55 387.77 36.875ZM397.07 24.9V40.775C397.07 41.875 397.17 42.8 397.195 43H394.42C394.37 42.725 394.295 41.925 394.295 41.425C393.72 42.45 392.445 43.3 390.72 43.3C387.22 43.3 384.87 40.55 384.87 36.875C384.87 33.375 387.245 30.5 390.67 30.5C392.795 30.5 393.87 31.475 394.245 32.25V24.9H397.07ZM402.884 35.575H408.859C408.809 34.15 407.859 32.875 405.859 32.875C404.034 32.875 402.984 34.275 402.884 35.575ZM409.184 38.75L411.634 39.525C410.984 41.65 409.059 43.375 406.134 43.375C402.834 43.375 399.909 40.975 399.909 36.85C399.909 33 402.759 30.45 405.834 30.45C409.584 30.45 411.784 32.925 411.784 36.775C411.784 37.25 411.734 37.65 411.709 37.7H402.809C402.884 39.55 404.334 40.875 406.134 40.875C407.884 40.875 408.784 39.95 409.184 38.75ZM417.431 47.75H414.556V30.825H417.356V32.475C417.956 31.425 419.356 30.55 421.231 30.55C424.831 30.55 426.856 33.3 426.856 36.9C426.856 40.55 424.631 43.3 421.131 43.3C419.381 43.3 418.056 42.55 417.431 41.625V47.75ZM423.956 36.9C423.956 34.625 422.631 33.125 420.681 33.125C418.781 33.125 417.406 34.625 417.406 36.9C417.406 39.225 418.781 40.725 420.681 40.725C422.606 40.725 423.956 39.225 423.956 36.9ZM428.894 39.7C428.894 37.525 430.494 36.325 432.569 36.025L435.694 35.55C436.394 35.45 436.594 35.1 436.594 34.675C436.594 33.65 435.894 32.825 434.294 32.825C432.769 32.825 431.919 33.8 431.794 35.025L429.144 34.425C429.369 32.325 431.269 30.45 434.269 30.45C438.019 30.45 439.444 32.575 439.444 35V41.05C439.444 42.15 439.569 42.875 439.594 43H436.894C436.869 42.925 436.769 42.425 436.769 41.45C436.194 42.375 434.994 43.375 433.019 43.375C430.469 43.375 428.894 41.625 428.894 39.7ZM433.569 41.1C435.194 41.1 436.594 40.325 436.594 37.95V37.4L433.419 37.875C432.519 38.025 431.794 38.525 431.794 39.525C431.794 40.35 432.419 41.1 433.569 41.1ZM450.074 30.75V33.7C449.749 33.65 449.424 33.625 449.124 33.625C446.874 33.625 445.849 34.925 445.849 37.2V43H442.949V30.825H445.774V32.775C446.349 31.45 447.699 30.675 449.299 30.675C449.649 30.675 449.949 30.725 450.074 30.75ZM456.707 27.1V30.825H459.232V33.4H456.707V39.05C456.707 40.125 457.182 40.575 458.257 40.575C458.657 40.575 459.132 40.5 459.257 40.475V42.875C459.082 42.95 458.532 43.15 457.482 43.15C455.232 43.15 453.832 41.8 453.832 39.525V33.4H451.582V30.825H452.207C453.507 30.825 454.082 30 454.082 28.925V27.1H456.707ZM464.867 43H461.992V30.825H464.767V32.375C465.467 31.125 466.992 30.475 468.367 30.475C469.967 30.475 471.367 31.2 472.017 32.625C472.967 31.025 474.392 30.475 475.967 30.475C478.167 30.475 480.267 31.875 480.267 35.1V43H477.467V35.575C477.467 34.15 476.742 33.075 475.117 33.075C473.592 33.075 472.592 34.275 472.592 35.775V43H469.742V35.575C469.742 34.175 469.042 33.075 467.392 33.075C465.842 33.075 464.867 34.225 464.867 35.775V43ZM485.843 35.575H491.818C491.768 34.15 490.818 32.875 488.818 32.875C486.993 32.875 485.943 34.275 485.843 35.575ZM492.143 38.75L494.593 39.525C493.943 41.65 492.018 43.375 489.093 43.375C485.793 43.375 482.868 40.975 482.868 36.85C482.868 33 485.718 30.45 488.793 30.45C492.543 30.45 494.743 32.925 494.743 36.775C494.743 37.25 494.693 37.65 494.668 37.7H485.768C485.843 39.55 487.293 40.875 489.093 40.875C490.843 40.875 491.743 39.95 492.143 38.75ZM500.415 35.975V43H497.515V30.825H500.34V32.45C501.14 31.05 502.59 30.475 503.94 30.475C506.915 30.475 508.34 32.625 508.34 35.3V43H505.44V35.8C505.44 34.3 504.765 33.1 502.94 33.1C501.29 33.1 500.415 34.375 500.415 35.975ZM515.545 27.1V30.825H518.07V33.4H515.545V39.05C515.545 40.125 516.02 40.575 517.095 40.575C517.495 40.575 517.97 40.5 518.095 40.475V42.875C517.92 42.95 517.37 43.15 516.32 43.15C514.07 43.15 512.67 41.8 512.67 39.525V33.4H510.42V30.825H511.045C512.345 30.825 512.92 30 512.92 28.925V27.1H515.545ZM532.552 40.775C534.352 40.775 535.952 39.45 535.952 36.9C535.952 34.375 534.352 33.075 532.552 33.075C530.777 33.075 529.152 34.375 529.152 36.9C529.152 39.425 530.777 40.775 532.552 40.775ZM532.552 30.45C536.202 30.45 538.877 33.175 538.877 36.9C538.877 40.65 536.202 43.375 532.552 43.375C528.927 43.375 526.252 40.65 526.252 36.9C526.252 33.175 528.927 30.45 532.552 30.45ZM547.08 27.375C546.305 27.375 545.28 27.725 545.28 29.225V30.825H548.105V33.35H545.28V43H542.355V33.35H540.23V30.825H542.355V29.15C542.355 26.425 544.105 24.775 546.605 24.775C547.33 24.775 547.93 24.925 548.13 25.025V27.5C547.955 27.45 547.63 27.375 547.08 27.375ZM561.921 33.125C560.146 33.125 558.571 34.45 558.571 36.9C558.571 39.35 560.146 40.725 561.971 40.725C563.871 40.725 564.746 39.4 565.021 38.475L567.571 39.4C566.996 41.3 565.171 43.375 561.971 43.375C558.396 43.375 555.671 40.6 555.671 36.9C555.671 33.15 558.396 30.45 561.896 30.45C565.171 30.45 566.971 32.5 567.471 34.45L564.871 35.4C564.596 34.325 563.771 33.125 561.921 33.125ZM575.374 40.775C577.174 40.775 578.774 39.45 578.774 36.9C578.774 34.375 577.174 33.075 575.374 33.075C573.599 33.075 571.974 34.375 571.974 36.9C571.974 39.425 573.599 40.775 575.374 40.775ZM575.374 30.45C579.024 30.45 581.699 33.175 581.699 36.9C581.699 40.65 579.024 43.375 575.374 43.375C571.749 43.375 569.074 40.65 569.074 36.9C569.074 33.175 571.749 30.45 575.374 30.45ZM587.377 43H584.502V30.825H587.277V32.375C587.977 31.125 589.502 30.475 590.877 30.475C592.477 30.475 593.877 31.2 594.527 32.625C595.477 31.025 596.902 30.475 598.477 30.475C600.677 30.475 602.777 31.875 602.777 35.1V43H599.977V35.575C599.977 34.15 599.252 33.075 597.627 33.075C596.102 33.075 595.102 34.275 595.102 35.775V43H592.252V35.575C592.252 34.175 591.552 33.075 589.902 33.075C588.352 33.075 587.377 34.225 587.377 35.775V43ZM609.203 47.75H606.328V30.825H609.128V32.475C609.728 31.425 611.128 30.55 613.003 30.55C616.603 30.55 618.628 33.3 618.628 36.9C618.628 40.55 616.403 43.3 612.903 43.3C611.153 43.3 609.828 42.55 609.203 41.625V47.75ZM615.728 36.9C615.728 34.625 614.403 33.125 612.453 33.125C610.553 33.125 609.178 34.625 609.178 36.9C609.178 39.225 610.553 40.725 612.453 40.725C614.378 40.725 615.728 39.225 615.728 36.9ZM623.441 35.575H629.416C629.366 34.15 628.416 32.875 626.416 32.875C624.591 32.875 623.541 34.275 623.441 35.575ZM629.741 38.75L632.191 39.525C631.541 41.65 629.616 43.375 626.691 43.375C623.391 43.375 620.466 40.975 620.466 36.85C620.466 33 623.316 30.45 626.391 30.45C630.141 30.45 632.341 32.925 632.341 36.775C632.341 37.25 632.291 37.65 632.266 37.7H623.366C623.441 39.55 624.891 40.875 626.691 40.875C628.441 40.875 629.341 39.95 629.741 38.75ZM638.787 27.1V30.825H641.312V33.4H638.787V39.05C638.787 40.125 639.262 40.575 640.337 40.575C640.737 40.575 641.212 40.5 641.337 40.475V42.875C641.162 42.95 640.612 43.15 639.562 43.15C637.312 43.15 635.912 41.8 635.912 39.525V33.4H633.662V30.825H634.287C635.587 30.825 636.162 30 636.162 28.925V27.1H638.787ZM647.167 43H644.292V30.825H647.167V43ZM643.842 26.55C643.842 25.5 644.692 24.65 645.717 24.65C646.767 24.65 647.617 25.5 647.617 26.55C647.617 27.6 646.767 28.425 645.717 28.425C644.692 28.425 643.842 27.6 643.842 26.55ZM654.583 27.1V30.825H657.108V33.4H654.583V39.05C654.583 40.125 655.058 40.575 656.133 40.575C656.533 40.575 657.008 40.5 657.133 40.475V42.875C656.958 42.95 656.408 43.15 655.358 43.15C653.108 43.15 651.708 41.8 651.708 39.525V33.4H649.458V30.825H650.083C651.383 30.825 651.958 30 651.958 28.925V27.1H654.583ZM662.963 43H660.088V30.825H662.963V43ZM659.638 26.55C659.638 25.5 660.488 24.65 661.513 24.65C662.563 24.65 663.413 25.5 663.413 26.55C663.413 27.6 662.563 28.425 661.513 28.425C660.488 28.425 659.638 27.6 659.638 26.55ZM672.054 40.775C673.854 40.775 675.454 39.45 675.454 36.9C675.454 34.375 673.854 33.075 672.054 33.075C670.279 33.075 668.654 34.375 668.654 36.9C668.654 39.425 670.279 40.775 672.054 40.775ZM672.054 30.45C675.704 30.45 678.379 33.175 678.379 36.9C678.379 40.65 675.704 43.375 672.054 43.375C668.429 43.375 665.754 40.65 665.754 36.9C665.754 33.175 668.429 30.45 672.054 30.45ZM684.082 35.975V43H681.182V30.825H684.007V32.45C684.807 31.05 686.257 30.475 687.607 30.475C690.582 30.475 692.007 32.625 692.007 35.3V43H689.107V35.8C689.107 34.3 688.432 33.1 686.607 33.1C684.957 33.1 684.082 34.375 684.082 35.975ZM694.462 39.7L696.987 39C697.087 40.1 697.912 41.075 699.462 41.075C700.662 41.075 701.287 40.425 701.287 39.675C701.287 39.025 700.837 38.525 699.862 38.325L698.062 37.925C695.912 37.45 694.787 36.05 694.787 34.375C694.787 32.25 696.737 30.45 699.262 30.45C702.662 30.45 703.762 32.65 703.962 33.85L701.512 34.55C701.412 33.85 700.887 32.725 699.262 32.725C698.237 32.725 697.512 33.375 697.512 34.125C697.512 34.775 697.987 35.25 698.737 35.4L700.587 35.775C702.887 36.275 704.087 37.675 704.087 39.475C704.087 41.325 702.587 43.375 699.487 43.375C695.962 43.375 694.612 41.075 694.462 39.7ZM716.864 47.925H713.764L716.689 41.55L711.489 30.825H714.764L718.264 38.525L721.539 30.825H724.614L716.864 47.925ZM731.527 40.775C733.327 40.775 734.927 39.45 734.927 36.9C734.927 34.375 733.327 33.075 731.527 33.075C729.752 33.075 728.127 34.375 728.127 36.9C728.127 39.425 729.752 40.775 731.527 40.775ZM731.527 30.45C735.177 30.45 737.852 33.175 737.852 36.9C737.852 40.65 735.177 43.375 731.527 43.375C727.902 43.375 725.227 40.65 725.227 36.9C725.227 33.175 727.902 30.45 731.527 30.45ZM748.506 41.65C747.906 42.75 746.481 43.35 745.056 43.35C742.156 43.35 740.456 41.2 740.456 38.5V30.825H743.356V37.975C743.356 39.475 744.056 40.75 745.806 40.75C747.481 40.75 748.356 39.625 748.356 38.025V30.825H751.256V40.775C751.256 41.775 751.331 42.55 751.381 43H748.606C748.556 42.725 748.506 42.15 748.506 41.65ZM768.111 30.825H771.111L773.986 39.25L776.411 30.825H779.361L775.461 43H772.561L769.536 34.25L766.586 43H763.611L759.661 30.825H762.761L765.236 39.25L768.111 30.825ZM784.447 43H781.572V30.825H784.447V43ZM781.122 26.55C781.122 25.5 781.972 24.65 782.997 24.65C784.047 24.65 784.897 25.5 784.897 26.55C784.897 27.6 784.047 28.425 782.997 28.425C781.972 28.425 781.122 27.6 781.122 26.55ZM787.113 39.7L789.638 39C789.738 40.1 790.563 41.075 792.113 41.075C793.313 41.075 793.938 40.425 793.938 39.675C793.938 39.025 793.488 38.525 792.513 38.325L790.713 37.925C788.563 37.45 787.438 36.05 787.438 34.375C787.438 32.25 789.388 30.45 791.913 30.45C795.313 30.45 796.413 32.65 796.613 33.85L794.163 34.55C794.063 33.85 793.538 32.725 791.913 32.725C790.888 32.725 790.163 33.375 790.163 34.125C790.163 34.775 790.638 35.25 791.388 35.4L793.238 35.775C795.538 36.275 796.738 37.675 796.738 39.475C796.738 41.325 795.238 43.375 792.138 43.375C788.613 43.375 787.263 41.075 787.113 39.7ZM802.514 35.85V43H799.614V24.9H802.514V32C803.339 30.925 804.714 30.475 805.989 30.475C808.989 30.475 810.439 32.625 810.439 35.3V43H807.539V35.8C807.539 34.3 806.864 33.1 805.039 33.1C803.439 33.1 802.564 34.3 802.514 35.85ZM823.846 27.1V30.825H826.371V33.4H823.846V39.05C823.846 40.125 824.321 40.575 825.396 40.575C825.796 40.575 826.271 40.5 826.396 40.475V42.875C826.221 42.95 825.671 43.15 824.621 43.15C822.371 43.15 820.971 41.8 820.971 39.525V33.4H818.721V30.825H819.346C820.646 30.825 821.221 30 821.221 28.925V27.1H823.846ZM834.579 40.775C836.379 40.775 837.979 39.45 837.979 36.9C837.979 34.375 836.379 33.075 834.579 33.075C832.804 33.075 831.179 34.375 831.179 36.9C831.179 39.425 832.804 40.775 834.579 40.775ZM834.579 30.45C838.229 30.45 840.904 33.175 840.904 36.9C840.904 40.65 838.229 43.375 834.579 43.375C830.954 43.375 828.279 40.65 828.279 36.9C828.279 33.175 830.954 30.45 834.579 30.45ZM476.854 79.75H473.979V62.825H476.779V64.475C477.379 63.425 478.779 62.55 480.654 62.55C484.254 62.55 486.279 65.3 486.279 68.9C486.279 72.55 484.054 75.3 480.554 75.3C478.804 75.3 477.479 74.55 476.854 73.625V79.75ZM483.379 68.9C483.379 66.625 482.054 65.125 480.104 65.125C478.204 65.125 476.829 66.625 476.829 68.9C476.829 71.225 478.204 72.725 480.104 72.725C482.029 72.725 483.379 71.225 483.379 68.9ZM488.317 71.7C488.317 69.525 489.917 68.325 491.992 68.025L495.117 67.55C495.817 67.45 496.017 67.1 496.017 66.675C496.017 65.65 495.317 64.825 493.717 64.825C492.192 64.825 491.342 65.8 491.217 67.025L488.567 66.425C488.792 64.325 490.692 62.45 493.692 62.45C497.442 62.45 498.867 64.575 498.867 67V73.05C498.867 74.15 498.992 74.875 499.017 75H496.317C496.292 74.925 496.192 74.425 496.192 73.45C495.617 74.375 494.417 75.375 492.442 75.375C489.892 75.375 488.317 73.625 488.317 71.7ZM492.992 73.1C494.617 73.1 496.017 72.325 496.017 69.95V69.4L492.842 69.875C491.942 70.025 491.217 70.525 491.217 71.525C491.217 72.35 491.842 73.1 492.992 73.1ZM509.498 62.75V65.7C509.173 65.65 508.848 65.625 508.548 65.625C506.298 65.625 505.273 66.925 505.273 69.2V75H502.373V62.825H505.198V64.775C505.773 63.45 507.123 62.675 508.723 62.675C509.073 62.675 509.373 62.725 509.498 62.75ZM516.131 59.1V62.825H518.656V65.4H516.131V71.05C516.131 72.125 516.606 72.575 517.681 72.575C518.081 72.575 518.556 72.5 518.681 72.475V74.875C518.506 74.95 517.956 75.15 516.906 75.15C514.656 75.15 513.256 73.8 513.256 71.525V65.4H511.006V62.825H511.631C512.931 62.825 513.506 62 513.506 60.925V59.1H516.131ZM524.511 75H521.636V62.825H524.511V75ZM521.186 58.55C521.186 57.5 522.036 56.65 523.061 56.65C524.111 56.65 524.961 57.5 524.961 58.55C524.961 59.6 524.111 60.425 523.061 60.425C522.036 60.425 521.186 59.6 521.186 58.55ZM533.552 65.125C531.777 65.125 530.202 66.45 530.202 68.9C530.202 71.35 531.777 72.725 533.602 72.725C535.502 72.725 536.377 71.4 536.652 70.475L539.202 71.4C538.627 73.3 536.802 75.375 533.602 75.375C530.027 75.375 527.302 72.6 527.302 68.9C527.302 65.15 530.027 62.45 533.527 62.45C536.802 62.45 538.602 64.5 539.102 66.45L536.502 67.4C536.227 66.325 535.402 65.125 533.552 65.125ZM544.652 75H541.777V62.825H544.652V75ZM541.327 58.55C541.327 57.5 542.177 56.65 543.202 56.65C544.252 56.65 545.102 57.5 545.102 58.55C545.102 59.6 544.252 60.425 543.202 60.425C542.177 60.425 541.327 59.6 541.327 58.55ZM551.269 79.75H548.394V62.825H551.194V64.475C551.794 63.425 553.194 62.55 555.069 62.55C558.669 62.55 560.694 65.3 560.694 68.9C560.694 72.55 558.469 75.3 554.969 75.3C553.219 75.3 551.894 74.55 551.269 73.625V79.75ZM557.794 68.9C557.794 66.625 556.469 65.125 554.519 65.125C552.619 65.125 551.244 66.625 551.244 68.9C551.244 71.225 552.619 72.725 554.519 72.725C556.444 72.725 557.794 71.225 557.794 68.9ZM562.731 71.7C562.731 69.525 564.331 68.325 566.406 68.025L569.531 67.55C570.231 67.45 570.431 67.1 570.431 66.675C570.431 65.65 569.731 64.825 568.131 64.825C566.606 64.825 565.756 65.8 565.631 67.025L562.981 66.425C563.206 64.325 565.106 62.45 568.106 62.45C571.856 62.45 573.281 64.575 573.281 67V73.05C573.281 74.15 573.406 74.875 573.431 75H570.731C570.706 74.925 570.606 74.425 570.606 73.45C570.031 74.375 568.831 75.375 566.856 75.375C564.306 75.375 562.731 73.625 562.731 71.7ZM567.406 73.1C569.031 73.1 570.431 72.325 570.431 69.95V69.4L567.256 69.875C566.356 70.025 565.631 70.525 565.631 71.525C565.631 72.35 566.256 73.1 567.406 73.1ZM580.413 59.1V62.825H582.938V65.4H580.413V71.05C580.413 72.125 580.888 72.575 581.963 72.575C582.363 72.575 582.838 72.5 582.963 72.475V74.875C582.788 74.95 582.238 75.15 581.188 75.15C578.938 75.15 577.538 73.8 577.538 71.525V65.4H575.288V62.825H575.913C577.213 62.825 577.788 62 577.788 60.925V59.1H580.413ZM587.821 67.575H593.796C593.746 66.15 592.796 64.875 590.796 64.875C588.971 64.875 587.921 66.275 587.821 67.575ZM594.121 70.75L596.571 71.525C595.921 73.65 593.996 75.375 591.071 75.375C587.771 75.375 584.846 72.975 584.846 68.85C584.846 65 587.696 62.45 590.771 62.45C594.521 62.45 596.721 64.925 596.721 68.775C596.721 69.25 596.671 69.65 596.646 69.7H587.746C587.821 71.55 589.271 72.875 591.071 72.875C592.821 72.875 593.721 71.95 594.121 70.75ZM608.568 75H605.693V62.825H608.568V75ZM605.243 58.55C605.243 57.5 606.093 56.65 607.118 56.65C608.168 56.65 609.018 57.5 609.018 58.55C609.018 59.6 608.168 60.425 607.118 60.425C606.093 60.425 605.243 59.6 605.243 58.55ZM615.21 67.975V75H612.31V62.825H615.135V64.45C615.935 63.05 617.385 62.475 618.735 62.475C621.71 62.475 623.135 64.625 623.135 67.3V75H620.235V67.8C620.235 66.3 619.56 65.1 617.735 65.1C616.085 65.1 615.21 66.375 615.21 67.975ZM630.59 57.275L629.89 69.75H627.79L627.065 57.275H630.59ZM627.015 73.35C627.015 72.35 627.815 71.5 628.815 71.5C629.84 71.5 630.665 72.35 630.665 73.35C630.665 74.35 629.84 75.175 628.815 75.175C627.815 75.175 627.015 74.35 627.015 73.35Z" fill="black"/>
<circle cx="115.5" cy="134.5" r="113" stroke="black" stroke-width="5" stroke-dasharray="10 10"/>
<path d="M529 130L529 129L529 130ZM564 165L565 165L564 165ZM563.293 299.707C563.683 300.098 564.317 300.098 564.707 299.707L571.071 293.343C571.462 292.953 571.462 292.319 571.071 291.929C570.681 291.538 570.047 291.538 569.657 291.929L564 297.586L558.343 291.929C557.953 291.538 557.319 291.538 556.929 291.929C556.538 292.319 556.538 292.953 556.929 293.343L563.293 299.707ZM259 131L264.192 131L264.192 129L259 129L259 131ZM274.577 131L284.962 131L284.962 129L274.577 129L274.577 131ZM295.346 131L305.731 131L305.731 129L295.346 129L295.346 131ZM316.115 131L326.5 131L326.5 129L316.115 129L316.115 131ZM336.885 131L347.269 131L347.269 129L336.885 129L336.885 131ZM357.654 131L368.038 131L368.038 129L357.654 129L357.654 131ZM378.423 131L388.808 131L388.808 129L378.423 129L378.423 131ZM399.192 131L409.577 131L409.577 129L399.192 129L399.192 131ZM419.962 131L430.346 131L430.346 129L419.962 129L419.962 131ZM440.731 131L451.115 131L451.115 129L440.731 129L440.731 131ZM461.5 131L471.885 131L471.885 129L461.5 129L461.5 131ZM482.269 131L492.654 131L492.654 129L482.269 129L482.269 131ZM503.038 131L513.423 131L513.423 129L503.038 129L503.038 131ZM523.808 131L529 131L529 129L523.808 129L523.808 131ZM529 131C530.506 131 531.989 131.098 533.442 131.287L533.701 129.304C532.162 129.103 530.593 129 529 129L529 131ZM542.014 133.579C544.778 134.725 547.358 136.226 549.698 138.024L550.917 136.438C548.44 134.535 545.708 132.946 542.781 131.732L542.014 133.579ZM555.976 144.302C557.774 146.642 559.274 149.222 560.42 151.985L562.268 151.219C561.054 148.292 559.465 145.56 557.562 143.083L555.976 144.302ZM562.713 160.558C562.902 162.011 563 163.494 563 165L565 165C565 163.407 564.896 161.838 564.696 160.299L562.713 160.558ZM563 165L563 169.786L565 169.786L565 165L563 165ZM563 179.357L563 188.928L565 188.928L565 179.357L563 179.357ZM563 198.5L563 208.071L565 208.071L565 198.5L563 198.5ZM563 217.643L563 227.214L565 227.214L565 217.643L563 217.643ZM563 236.786L563 246.357L565 246.357L565 236.786L563 236.786ZM563 255.928L563 265.5L565 265.5L565 255.928L563 255.928ZM563 275.071L563 284.643L565 284.643L565 275.071L563 275.071ZM563 294.214L563 299L565 299L565 294.214L563 294.214ZM529 130L529 128L529 130ZM564 165L566 165L564 165ZM562.586 300.414C563.367 301.195 564.633 301.195 565.414 300.414L578.142 287.686C578.923 286.905 578.923 285.639 578.142 284.858C577.361 284.077 576.095 284.077 575.314 284.858L564 296.171L552.686 284.858C551.905 284.077 550.639 284.077 549.858 284.858C549.077 285.639 549.077 286.905 549.858 287.686L562.586 300.414ZM259 132L264.192 132L264.192 128L259 128L259 132ZM274.577 132L284.962 132L284.962 128L274.577 128L274.577 132ZM295.346 132L305.731 132L305.731 128L295.346 128L295.346 132ZM316.115 132L326.5 132L326.5 128L316.115 128L316.115 132ZM336.885 132L347.269 132L347.269 128L336.885 128L336.885 132ZM357.654 132L368.038 132L368.038 128L357.654 128L357.654 132ZM378.423 132L388.808 132L388.808 128L378.423 128L378.423 132ZM399.192 132L409.577 132L409.577 128L399.192 128L399.192 132ZM419.962 132L430.346 132L430.346 128L419.962 128L419.962 132ZM440.731 132L451.115 132L451.115 128L440.731 128L440.731 132ZM461.5 132L471.885 132L471.885 128L461.5 128L461.5 132ZM482.269 132L492.654 132L492.654 128L482.269 128L482.269 132ZM503.038 132L513.423 132L513.423 128L503.038 128L503.038 132ZM523.808 132L529 132L529 128L523.808 128L523.808 132ZM529 132C530.463 132 531.902 132.095 533.313 132.279L533.83 128.313C532.248 128.106 530.636 128 529 128L529 132ZM541.631 134.503C544.313 135.615 546.817 137.071 549.089 138.817L551.526 135.645C548.981 133.689 546.173 132.056 543.164 130.808L541.631 134.503ZM555.183 144.911C556.929 147.183 558.385 149.687 559.497 152.368L563.192 150.836C561.944 147.827 560.311 145.019 558.355 142.474L555.183 144.911ZM561.721 160.687C561.905 162.098 562 163.537 562 165L566 165C566 163.364 565.894 161.752 565.687 160.17L561.721 160.687ZM562 165L562 169.786L566 169.786L566 165L562 165ZM562 179.357L562 188.928L566 188.928L566 179.357L562 179.357ZM562 198.5L562 208.071L566 208.071L566 198.5L562 198.5ZM562 217.643L562 227.214L566 227.214L566 217.643L562 217.643ZM562 236.786L562 246.357L566 246.357L566 236.786L562 236.786ZM562 255.928L562 265.5L566 265.5L566 255.928L562 255.928ZM562 275.071L562 284.643L566 284.643L566 275.071L562 275.071ZM562 294.214L562 299L566 299L566 294.214L562 294.214Z" fill="black"/>
</svg>
