<svg width="1279" height="781" viewBox="0 0 1279 781" fill="none" xmlns="http://www.w3.org/2000/svg">
<path d="M356.044 346L352.319 339H350.119V346H347.094V328.275H353.894C357.319 328.275 359.444 330.65 359.444 333.65C359.444 336.175 357.919 338.1 355.444 338.7L359.444 346H356.044ZM350.119 336.35H353.344C355.194 336.35 356.394 335.275 356.394 333.65C356.394 332 355.194 330.925 353.344 330.925H350.119V336.35ZM364.006 338.575H369.981C369.931 337.15 368.981 335.875 366.981 335.875C365.156 335.875 364.106 337.275 364.006 338.575ZM370.306 341.75L372.756 342.525C372.106 344.65 370.181 346.375 367.256 346.375C363.956 346.375 361.031 343.975 361.031 339.85C361.031 336 363.881 333.45 366.956 333.45C370.706 333.45 372.906 335.925 372.906 339.775C372.906 340.25 372.856 340.65 372.831 340.7H363.931C364.006 342.55 365.456 343.875 367.256 343.875C369.006 343.875 369.906 342.95 370.306 341.75ZM386.433 333.825L381.658 346H378.758L373.808 333.825H377.008L380.233 342.525L383.383 333.825H386.433ZM391.443 346H388.568V333.825H391.443V346ZM388.118 329.55C388.118 328.5 388.968 327.65 389.993 327.65C391.043 327.65 391.893 328.5 391.893 329.55C391.893 330.6 391.043 331.425 389.993 331.425C388.968 331.425 388.118 330.6 388.118 329.55ZM397.209 338.575H403.184C403.134 337.15 402.184 335.875 400.184 335.875C398.359 335.875 397.309 337.275 397.209 338.575ZM403.509 341.75L405.959 342.525C405.309 344.65 403.384 346.375 400.459 346.375C397.159 346.375 394.234 343.975 394.234 339.85C394.234 336 397.084 333.45 400.159 333.45C403.909 333.45 406.109 335.925 406.109 339.775C406.109 340.25 406.059 340.65 406.034 340.7H397.134C397.209 342.55 398.659 343.875 400.459 343.875C402.209 343.875 403.109 342.95 403.509 341.75ZM415.609 333.825H418.609L421.484 342.25L423.909 333.825H426.859L422.959 346H420.059L417.034 337.25L414.084 346H411.109L407.159 333.825H410.259L412.734 342.25L415.609 333.825ZM438.972 350.925H435.872L438.797 344.55L433.597 333.825H436.872L440.372 341.525L443.647 333.825H446.722L438.972 350.925ZM453.635 343.775C455.435 343.775 457.035 342.45 457.035 339.9C457.035 337.375 455.435 336.075 453.635 336.075C451.86 336.075 450.235 337.375 450.235 339.9C450.235 342.425 451.86 343.775 453.635 343.775ZM453.635 333.45C457.285 333.45 459.96 336.175 459.96 339.9C459.96 343.65 457.285 346.375 453.635 346.375C450.01 346.375 447.335 343.65 447.335 339.9C447.335 336.175 450.01 333.45 453.635 333.45ZM470.614 344.65C470.014 345.75 468.589 346.35 467.164 346.35C464.264 346.35 462.564 344.2 462.564 341.5V333.825H465.464V340.975C465.464 342.475 466.164 343.75 467.914 343.75C469.589 343.75 470.464 342.625 470.464 341.025V333.825H473.364V343.775C473.364 344.775 473.439 345.55 473.489 346H470.714C470.664 345.725 470.614 345.15 470.614 344.65ZM484.243 333.75V336.7C483.918 336.65 483.593 336.625 483.293 336.625C481.043 336.625 480.018 337.925 480.018 340.2V346H477.118V333.825H479.943V335.775C480.518 334.45 481.868 333.675 483.468 333.675C483.818 333.675 484.118 333.725 484.243 333.75ZM495.691 346H492.816V333.825H495.691V346ZM492.366 329.55C492.366 328.5 493.216 327.65 494.241 327.65C495.291 327.65 496.141 328.5 496.141 329.55C496.141 330.6 495.291 331.425 494.241 331.425C493.216 331.425 492.366 330.6 492.366 329.55ZM502.332 338.975V346H499.432V333.825H502.257V335.45C503.057 334.05 504.507 333.475 505.857 333.475C508.832 333.475 510.257 335.625 510.257 338.3V346H507.357V338.8C507.357 337.3 506.682 336.1 504.857 336.1C503.207 336.1 502.332 337.375 502.332 338.975ZM519.188 330.375C518.413 330.375 517.388 330.725 517.388 332.225V333.825H520.213V336.35H517.388V346H514.463V336.35H512.338V333.825H514.463V332.15C514.463 329.425 516.213 327.775 518.713 327.775C519.438 327.775 520.038 327.925 520.238 328.025V330.5C520.063 330.45 519.738 330.375 519.188 330.375ZM527.512 343.775C529.312 343.775 530.912 342.45 530.912 339.9C530.912 337.375 529.312 336.075 527.512 336.075C525.737 336.075 524.112 337.375 524.112 339.9C524.112 342.425 525.737 343.775 527.512 343.775ZM527.512 333.45C531.162 333.45 533.837 336.175 533.837 339.9C533.837 343.65 531.162 346.375 527.512 346.375C523.887 346.375 521.212 343.65 521.212 339.9C521.212 336.175 523.887 333.45 527.512 333.45ZM543.764 333.75V336.7C543.439 336.65 543.114 336.625 542.814 336.625C540.564 336.625 539.539 337.925 539.539 340.2V346H536.639V333.825H539.464V335.775C540.039 334.45 541.389 333.675 542.989 333.675C543.339 333.675 543.639 333.725 543.764 333.75ZM549.06 346H546.185V333.825H548.96V335.375C549.66 334.125 551.185 333.475 552.56 333.475C554.16 333.475 555.56 334.2 556.21 335.625C557.16 334.025 558.585 333.475 560.16 333.475C562.36 333.475 564.46 334.875 564.46 338.1V346H561.66V338.575C561.66 337.15 560.935 336.075 559.31 336.075C557.785 336.075 556.785 337.275 556.785 338.775V346H553.935V338.575C553.935 337.175 553.235 336.075 551.585 336.075C550.035 336.075 549.06 337.225 549.06 338.775V346ZM567.261 342.7C567.261 340.525 568.861 339.325 570.936 339.025L574.061 338.55C574.761 338.45 574.961 338.1 574.961 337.675C574.961 336.65 574.261 335.825 572.661 335.825C571.136 335.825 570.286 336.8 570.161 338.025L567.511 337.425C567.736 335.325 569.636 333.45 572.636 333.45C576.386 333.45 577.811 335.575 577.811 338V344.05C577.811 345.15 577.936 345.875 577.961 346H575.261C575.236 345.925 575.136 345.425 575.136 344.45C574.561 345.375 573.361 346.375 571.386 346.375C568.836 346.375 567.261 344.625 567.261 342.7ZM571.936 344.1C573.561 344.1 574.961 343.325 574.961 340.95V340.4L571.786 340.875C570.886 341.025 570.161 341.525 570.161 342.525C570.161 343.35 570.786 344.1 571.936 344.1ZM584.943 330.1V333.825H587.468V336.4H584.943V342.05C584.943 343.125 585.418 343.575 586.493 343.575C586.893 343.575 587.368 343.5 587.493 343.475V345.875C587.318 345.95 586.768 346.15 585.718 346.15C583.468 346.15 582.068 344.8 582.068 342.525V336.4H579.818V333.825H580.443C581.743 333.825 582.318 333 582.318 331.925V330.1H584.943ZM593.323 346H590.448V333.825H593.323V346ZM589.998 329.55C589.998 328.5 590.848 327.65 591.873 327.65C592.923 327.65 593.773 328.5 593.773 329.55C593.773 330.6 592.923 331.425 591.873 331.425C590.848 331.425 589.998 330.6 589.998 329.55ZM602.414 343.775C604.214 343.775 605.814 342.45 605.814 339.9C605.814 337.375 604.214 336.075 602.414 336.075C600.639 336.075 599.014 337.375 599.014 339.9C599.014 342.425 600.639 343.775 602.414 343.775ZM602.414 333.45C606.064 333.45 608.739 336.175 608.739 339.9C608.739 343.65 606.064 346.375 602.414 346.375C598.789 346.375 596.114 343.65 596.114 339.9C596.114 336.175 598.789 333.45 602.414 333.45ZM614.442 338.975V346H611.542V333.825H614.367V335.45C615.167 334.05 616.617 333.475 617.967 333.475C620.942 333.475 622.367 335.625 622.367 338.3V346H619.467V338.8C619.467 337.3 618.792 336.1 616.967 336.1C615.317 336.1 614.442 337.375 614.442 338.975ZM631.348 342.7C631.348 340.525 632.948 339.325 635.023 339.025L638.148 338.55C638.848 338.45 639.048 338.1 639.048 337.675C639.048 336.65 638.348 335.825 636.748 335.825C635.223 335.825 634.373 336.8 634.248 338.025L631.598 337.425C631.823 335.325 633.723 333.45 636.723 333.45C640.473 333.45 641.898 335.575 641.898 338V344.05C641.898 345.15 642.023 345.875 642.048 346H639.348C639.323 345.925 639.223 345.425 639.223 344.45C638.648 345.375 637.448 346.375 635.473 346.375C632.923 346.375 631.348 344.625 631.348 342.7ZM636.023 344.1C637.648 344.1 639.048 343.325 639.048 340.95V340.4L635.873 340.875C634.973 341.025 634.248 341.525 634.248 342.525C634.248 343.35 634.873 344.1 636.023 344.1ZM648.304 338.975V346H645.404V333.825H648.229V335.45C649.029 334.05 650.479 333.475 651.829 333.475C654.804 333.475 656.229 335.625 656.229 338.3V346H653.329V338.8C653.329 337.3 652.654 336.1 650.829 336.1C649.179 336.1 648.304 337.375 648.304 338.975ZM661.709 339.875C661.709 342.2 663.009 343.75 664.984 343.75C666.884 343.75 668.209 342.175 668.209 339.85C668.209 337.525 666.909 336.075 665.009 336.075C663.109 336.075 661.709 337.55 661.709 339.875ZM671.009 327.9V343.775C671.009 344.875 671.109 345.8 671.134 346H668.359C668.309 345.725 668.234 344.925 668.234 344.425C667.659 345.45 666.384 346.3 664.659 346.3C661.159 346.3 658.809 343.55 658.809 339.875C658.809 336.375 661.184 333.5 664.609 333.5C666.734 333.5 667.809 334.475 668.184 335.25V327.9H671.009ZM686.3 336.125C684.525 336.125 682.95 337.45 682.95 339.9C682.95 342.35 684.525 343.725 686.35 343.725C688.25 343.725 689.125 342.4 689.4 341.475L691.95 342.4C691.375 344.3 689.55 346.375 686.35 346.375C682.775 346.375 680.05 343.6 680.05 339.9C680.05 336.15 682.775 333.45 686.275 333.45C689.55 333.45 691.35 335.5 691.85 337.45L689.25 338.4C688.975 337.325 688.15 336.125 686.3 336.125ZM697.425 346H694.525V327.9H697.425V346ZM704.041 346H701.166V333.825H704.041V346ZM700.716 329.55C700.716 328.5 701.566 327.65 702.591 327.65C703.641 327.65 704.491 328.5 704.491 329.55C704.491 330.6 703.641 331.425 702.591 331.425C701.566 331.425 700.716 330.6 700.716 329.55ZM713.082 336.125C711.307 336.125 709.732 337.45 709.732 339.9C709.732 342.35 711.307 343.725 713.132 343.725C715.032 343.725 715.907 342.4 716.182 341.475L718.732 342.4C718.157 344.3 716.332 346.375 713.132 346.375C709.557 346.375 706.832 343.6 706.832 339.9C706.832 336.15 709.557 333.45 713.057 333.45C716.332 333.45 718.132 335.5 718.632 337.45L716.032 338.4C715.757 337.325 714.932 336.125 713.082 336.125ZM732.707 333.825L727.707 338.975L732.807 346H729.257L725.682 341.025L724.182 342.6V346H721.307V327.9H724.182V338.75L728.857 333.825H732.707ZM358.806 374.7L361.331 374C361.431 375.1 362.256 376.075 363.806 376.075C365.006 376.075 365.631 375.425 365.631 374.675C365.631 374.025 365.181 373.525 364.206 373.325L362.406 372.925C360.256 372.45 359.131 371.05 359.131 369.375C359.131 367.25 361.081 365.45 363.606 365.45C367.006 365.45 368.106 367.65 368.306 368.85L365.856 369.55C365.756 368.85 365.231 367.725 363.606 367.725C362.581 367.725 361.856 368.375 361.856 369.125C361.856 369.775 362.331 370.25 363.081 370.4L364.931 370.775C367.231 371.275 368.431 372.675 368.431 374.475C368.431 376.325 366.931 378.375 363.831 378.375C360.306 378.375 358.956 376.075 358.806 374.7ZM379.11 376.65C378.51 377.75 377.085 378.35 375.66 378.35C372.76 378.35 371.06 376.2 371.06 373.5V365.825H373.96V372.975C373.96 374.475 374.66 375.75 376.41 375.75C378.085 375.75 378.96 374.625 378.96 373.025V365.825H381.86V375.775C381.86 376.775 381.935 377.55 381.985 378H379.21C379.16 377.725 379.11 377.15 379.11 376.65ZM388.439 378H385.614V359.9H388.464V367.325C389.014 366.375 390.414 365.5 392.289 365.5C395.939 365.5 397.914 368.275 397.914 371.85C397.914 375.525 395.739 378.3 392.189 378.3C390.464 378.3 389.139 377.55 388.439 376.375V378ZM394.989 371.875C394.989 369.45 393.639 368.075 391.714 368.075C389.864 368.075 388.439 369.45 388.439 371.875C388.439 374.275 389.864 375.725 391.714 375.725C393.614 375.725 394.989 374.275 394.989 371.875ZM403.577 378H400.702V365.825H403.477V367.375C404.177 366.125 405.702 365.475 407.077 365.475C408.677 365.475 410.077 366.2 410.727 367.625C411.677 366.025 413.102 365.475 414.677 365.475C416.877 365.475 418.977 366.875 418.977 370.1V378H416.177V370.575C416.177 369.15 415.452 368.075 413.827 368.075C412.302 368.075 411.302 369.275 411.302 370.775V378H408.452V370.575C408.452 369.175 407.752 368.075 406.102 368.075C404.552 368.075 403.577 369.225 403.577 370.775V378ZM425.403 378H422.528V365.825H425.403V378ZM422.078 361.55C422.078 360.5 422.928 359.65 423.953 359.65C425.003 359.65 425.853 360.5 425.853 361.55C425.853 362.6 425.003 363.425 423.953 363.425C422.928 363.425 422.078 362.6 422.078 361.55ZM432.819 362.1V365.825H435.344V368.4H432.819V374.05C432.819 375.125 433.294 375.575 434.369 375.575C434.769 375.575 435.244 375.5 435.369 375.475V377.875C435.194 377.95 434.644 378.15 433.594 378.15C431.344 378.15 429.944 376.8 429.944 374.525V368.4H427.694V365.825H428.319C429.619 365.825 430.194 365 430.194 363.925V362.1H432.819ZM448.151 362.1V365.825H450.676V368.4H448.151V374.05C448.151 375.125 448.626 375.575 449.701 375.575C450.101 375.575 450.576 375.5 450.701 375.475V377.875C450.526 377.95 449.976 378.15 448.926 378.15C446.676 378.15 445.276 376.8 445.276 374.525V368.4H443.026V365.825H443.651C444.951 365.825 445.526 365 445.526 363.925V362.1H448.151ZM458.884 375.775C460.684 375.775 462.284 374.45 462.284 371.9C462.284 369.375 460.684 368.075 458.884 368.075C457.109 368.075 455.484 369.375 455.484 371.9C455.484 374.425 457.109 375.775 458.884 375.775ZM458.884 365.45C462.534 365.45 465.209 368.175 465.209 371.9C465.209 375.65 462.534 378.375 458.884 378.375C455.259 378.375 452.584 375.65 452.584 371.9C452.584 368.175 455.259 365.45 458.884 365.45ZM477.087 382.75H474.212V365.825H477.012V367.475C477.612 366.425 479.012 365.55 480.887 365.55C484.487 365.55 486.512 368.3 486.512 371.9C486.512 375.55 484.287 378.3 480.787 378.3C479.037 378.3 477.712 377.55 477.087 376.625V382.75ZM483.612 371.9C483.612 369.625 482.287 368.125 480.337 368.125C478.437 368.125 477.062 369.625 477.062 371.9C477.062 374.225 478.437 375.725 480.337 375.725C482.262 375.725 483.612 374.225 483.612 371.9ZM496.425 365.75V368.7C496.1 368.65 495.775 368.625 495.475 368.625C493.225 368.625 492.2 369.925 492.2 372.2V378H489.3V365.825H492.125V367.775C492.7 366.45 494.05 365.675 495.65 365.675C496 365.675 496.3 365.725 496.425 365.75ZM504.074 375.775C505.874 375.775 507.474 374.45 507.474 371.9C507.474 369.375 505.874 368.075 504.074 368.075C502.299 368.075 500.674 369.375 500.674 371.9C500.674 374.425 502.299 375.775 504.074 375.775ZM504.074 365.45C507.724 365.45 510.399 368.175 510.399 371.9C510.399 375.65 507.724 378.375 504.074 378.375C500.449 378.375 497.774 375.65 497.774 371.9C497.774 368.175 500.449 365.45 504.074 365.45ZM518.502 368.125C516.727 368.125 515.152 369.45 515.152 371.9C515.152 374.35 516.727 375.725 518.552 375.725C520.452 375.725 521.327 374.4 521.602 373.475L524.152 374.4C523.577 376.3 521.752 378.375 518.552 378.375C514.977 378.375 512.252 375.6 512.252 371.9C512.252 368.15 514.977 365.45 518.477 365.45C521.752 365.45 523.552 367.5 524.052 369.45L521.452 370.4C521.177 369.325 520.352 368.125 518.502 368.125ZM528.63 370.575H534.605C534.555 369.15 533.605 367.875 531.605 367.875C529.78 367.875 528.73 369.275 528.63 370.575ZM534.93 373.75L537.38 374.525C536.73 376.65 534.805 378.375 531.88 378.375C528.58 378.375 525.655 375.975 525.655 371.85C525.655 368 528.505 365.45 531.58 365.45C535.33 365.45 537.53 367.925 537.53 371.775C537.53 372.25 537.48 372.65 537.455 372.7H528.555C528.63 374.55 530.08 375.875 531.88 375.875C533.63 375.875 534.53 374.95 534.93 373.75ZM542.326 370.575H548.301C548.251 369.15 547.301 367.875 545.301 367.875C543.476 367.875 542.426 369.275 542.326 370.575ZM548.626 373.75L551.076 374.525C550.426 376.65 548.501 378.375 545.576 378.375C542.276 378.375 539.351 375.975 539.351 371.85C539.351 368 542.201 365.45 545.276 365.45C549.026 365.45 551.226 367.925 551.226 371.775C551.226 372.25 551.176 372.65 551.151 372.7H542.251C542.326 374.55 543.776 375.875 545.576 375.875C547.326 375.875 548.226 374.95 548.626 373.75ZM555.948 371.875C555.948 374.2 557.248 375.75 559.223 375.75C561.123 375.75 562.448 374.175 562.448 371.85C562.448 369.525 561.148 368.075 559.248 368.075C557.348 368.075 555.948 369.55 555.948 371.875ZM565.248 359.9V375.775C565.248 376.875 565.348 377.8 565.373 378H562.598C562.548 377.725 562.473 376.925 562.473 376.425C561.898 377.45 560.623 378.3 558.898 378.3C555.398 378.3 553.048 375.55 553.048 371.875C553.048 368.375 555.423 365.5 558.848 365.5C560.973 365.5 562.048 366.475 562.423 367.25V359.9H565.248ZM580.638 362.375C579.863 362.375 578.838 362.725 578.838 364.225V365.825H581.663V368.35H578.838V378H575.913V368.35H573.788V365.825H575.913V364.15C575.913 361.425 577.663 359.775 580.163 359.775C580.888 359.775 581.488 359.925 581.688 360.025V362.5C581.513 362.45 581.188 362.375 580.638 362.375ZM588.962 375.775C590.762 375.775 592.362 374.45 592.362 371.9C592.362 369.375 590.762 368.075 588.962 368.075C587.187 368.075 585.562 369.375 585.562 371.9C585.562 374.425 587.187 375.775 588.962 375.775ZM588.962 365.45C592.612 365.45 595.287 368.175 595.287 371.9C595.287 375.65 592.612 378.375 588.962 378.375C585.337 378.375 582.662 375.65 582.662 371.9C582.662 368.175 585.337 365.45 588.962 365.45ZM605.214 365.75V368.7C604.889 368.65 604.564 368.625 604.264 368.625C602.014 368.625 600.989 369.925 600.989 372.2V378H598.089V365.825H600.914V367.775C601.489 366.45 602.839 365.675 604.439 365.675C604.789 365.675 605.089 365.725 605.214 365.75ZM616.663 382.75H613.788V365.825H616.588V367.475C617.188 366.425 618.588 365.55 620.463 365.55C624.063 365.55 626.088 368.3 626.088 371.9C626.088 375.55 623.863 378.3 620.363 378.3C618.613 378.3 617.288 377.55 616.663 376.625V382.75ZM623.188 371.9C623.188 369.625 621.863 368.125 619.913 368.125C618.013 368.125 616.638 369.625 616.638 371.9C616.638 374.225 618.013 375.725 619.913 375.725C621.838 375.725 623.188 374.225 623.188 371.9ZM628.125 374.7C628.125 372.525 629.725 371.325 631.8 371.025L634.925 370.55C635.625 370.45 635.825 370.1 635.825 369.675C635.825 368.65 635.125 367.825 633.525 367.825C632 367.825 631.15 368.8 631.025 370.025L628.375 369.425C628.6 367.325 630.5 365.45 633.5 365.45C637.25 365.45 638.675 367.575 638.675 370V376.05C638.675 377.15 638.8 377.875 638.825 378H636.125C636.1 377.925 636 377.425 636 376.45C635.425 377.375 634.225 378.375 632.25 378.375C629.7 378.375 628.125 376.625 628.125 374.7ZM632.8 376.1C634.425 376.1 635.825 375.325 635.825 372.95V372.4L632.65 372.875C631.75 373.025 631.025 373.525 631.025 374.525C631.025 375.35 631.65 376.1 632.8 376.1ZM645.588 382.925H642.488L645.413 376.55L640.213 365.825H643.488L646.988 373.525L650.263 365.825H653.338L645.588 382.925ZM658.337 378H655.462V365.825H658.237V367.375C658.937 366.125 660.462 365.475 661.837 365.475C663.437 365.475 664.837 366.2 665.487 367.625C666.437 366.025 667.862 365.475 669.437 365.475C671.637 365.475 673.737 366.875 673.737 370.1V378H670.937V370.575C670.937 369.15 670.212 368.075 668.587 368.075C667.062 368.075 666.062 369.275 666.062 370.775V378H663.212V370.575C663.212 369.175 662.512 368.075 660.862 368.075C659.312 368.075 658.337 369.225 658.337 370.775V378ZM679.314 370.575H685.289C685.239 369.15 684.289 367.875 682.289 367.875C680.464 367.875 679.414 369.275 679.314 370.575ZM685.614 373.75L688.064 374.525C687.414 376.65 685.489 378.375 682.564 378.375C679.264 378.375 676.339 375.975 676.339 371.85C676.339 368 679.189 365.45 682.264 365.45C686.014 365.45 688.214 367.925 688.214 371.775C688.214 372.25 688.164 372.65 688.139 372.7H679.239C679.314 374.55 680.764 375.875 682.564 375.875C684.314 375.875 685.214 374.95 685.614 373.75ZM693.885 370.975V378H690.985V365.825H693.81V367.45C694.61 366.05 696.06 365.475 697.41 365.475C700.385 365.475 701.81 367.625 701.81 370.3V378H698.91V370.8C698.91 369.3 698.235 368.1 696.41 368.1C694.76 368.1 693.885 369.375 693.885 370.975ZM709.015 362.1V365.825H711.54V368.4H709.015V374.05C709.015 375.125 709.49 375.575 710.565 375.575C710.965 375.575 711.44 375.5 711.565 375.475V377.875C711.39 377.95 710.84 378.15 709.79 378.15C707.54 378.15 706.14 376.8 706.14 374.525V368.4H703.89V365.825H704.515C705.815 365.825 706.39 365 706.39 363.925V362.1H709.015ZM714.271 376.125C714.271 375 715.171 374.075 716.296 374.075C717.421 374.075 718.346 375 718.346 376.125C718.346 377.25 717.421 378.15 716.296 378.15C715.171 378.15 714.271 377.25 714.271 376.125Z" fill="black"/>
<path d="M122.875 374.875H139.125V428.5H150.875V444.125H139.125V463H120.75V444.125H78L74.875 430.5L122.875 374.875ZM120.75 428.5V401.25L97.5 428.5H120.75ZM185.182 463H164.932V443H185.182V463Z" fill="#003149"/>
<circle cx="115.5" cy="428.5" r="113" stroke="black" stroke-width="5" stroke-dasharray="10 10"/>
<path d="M1193 438.51L1193 437.51L1193 437.51L1193 438.51ZM1228 403.51L1229 403.51L1228 403.51ZM1227.29 317.293C1227.68 316.902 1228.32 316.902 1228.71 317.293L1235.07 323.657C1235.46 324.047 1235.46 324.681 1235.07 325.071C1234.68 325.462 1234.05 325.462 1233.66 325.071L1228 319.414L1222.34 325.071C1221.95 325.462 1221.32 325.462 1220.93 325.071C1220.54 324.681 1220.54 324.047 1220.93 323.657L1227.29 317.293ZM1229 318L1229 323.344L1227 323.344L1227 318L1229 318ZM1229 334.033L1229 344.722L1227 344.722L1227 334.033L1229 334.033ZM1229 355.411L1229 366.099L1227 366.1L1227 355.411L1229 355.411ZM1229 376.788L1229 387.477L1227 387.477L1227 376.788L1229 376.788ZM1229 398.166L1229 403.51L1227 403.51L1227 398.166L1229 398.166ZM1229 403.51C1229 405.103 1228.9 406.672 1228.7 408.211L1226.71 407.952C1226.9 406.499 1227 405.016 1227 403.51L1229 403.51ZM1226.27 417.291C1225.05 420.218 1223.47 422.95 1221.56 425.427L1219.98 424.208C1221.77 421.868 1223.27 419.288 1224.42 416.525L1226.27 417.291ZM1214.92 432.072C1212.44 433.976 1209.71 435.564 1206.78 436.778L1206.01 434.931C1208.78 433.785 1211.36 432.284 1213.7 430.486L1214.92 432.072ZM1197.7 439.206C1196.16 439.407 1194.59 439.51 1193 439.51L1193 437.51C1194.51 437.51 1195.99 437.412 1197.44 437.223L1197.7 439.206ZM1193 439.51L1188.04 439.51L1188.04 437.51L1193 437.51L1193 439.51ZM1178.11 439.51L1168.19 439.51L1168.19 437.51L1178.11 437.51L1178.11 439.51ZM1158.26 439.51L1148.34 439.51L1148.34 437.51L1158.26 437.51L1158.26 439.51ZM1138.41 439.51L1128.48 439.51L1128.48 437.51L1138.41 437.51L1138.41 439.51ZM1118.56 439.51L1108.63 439.51L1108.63 437.51L1118.56 437.51L1118.56 439.51ZM1098.71 439.51L1088.78 439.51L1088.78 437.51L1098.71 437.51L1098.71 439.51ZM1078.86 439.51L1068.93 439.51L1068.93 437.51L1078.86 437.51L1078.86 439.51ZM1059.01 439.51L1049.08 439.51L1049.08 437.51L1059.01 437.51L1059.01 439.51ZM1039.15 439.51L1029.23 439.51L1029.23 437.51L1039.15 437.51L1039.15 439.51ZM1019.3 439.51L1009.38 439.51L1009.38 437.51L1019.3 437.51L1019.3 439.51ZM999.452 439.51L989.527 439.51L989.527 437.51L999.452 437.51L999.452 439.51ZM979.601 439.51L969.676 439.51L969.676 437.51L979.601 437.51L979.601 439.51ZM959.75 439.51L949.824 439.51L949.824 437.51L959.75 437.51L959.75 439.51ZM939.899 439.51L929.973 439.51L929.973 437.51L939.899 437.51L939.899 439.51ZM920.048 439.51L910.122 439.51L910.122 437.51L920.048 437.51L920.048 439.51ZM900.197 439.51L890.271 439.51L890.271 437.51L900.197 437.51L900.197 439.51ZM880.346 439.51L870.42 439.51L870.42 437.51L880.346 437.51L880.346 439.51ZM860.495 439.51L850.569 439.51L850.569 437.51L860.495 437.51L860.495 439.51ZM840.644 439.51L830.718 439.51L830.718 437.51L840.644 437.51L840.644 439.51ZM820.792 439.51L810.867 439.51L810.867 437.51L820.792 437.51L820.792 439.51ZM800.941 439.51L791.016 439.51L791.016 437.51L800.941 437.51L800.941 439.51ZM781.09 439.51L771.165 439.51L771.165 437.51L781.09 437.51L781.09 439.51ZM761.239 439.51L751.314 439.51L751.314 437.51L761.239 437.51L761.239 439.51ZM741.388 439.51L731.463 439.51L731.463 437.51L741.388 437.51L741.388 439.51ZM721.537 439.51L711.612 439.51L711.612 437.51L721.537 437.51L721.537 439.51ZM701.686 439.51L691.761 439.51L691.76 437.51L701.686 437.51L701.686 439.51ZM681.835 439.51L671.909 439.51L671.909 437.51L681.835 437.51L681.835 439.51ZM661.984 439.51L652.058 439.51L652.058 437.51L661.984 437.51L661.984 439.51ZM642.133 439.51L632.207 439.51L632.207 437.51L642.133 437.51L642.133 439.51ZM622.282 439.51L612.356 439.51L612.356 437.51L622.282 437.51L622.282 439.51ZM602.431 439.51L592.505 439.51L592.505 437.51L602.431 437.51L602.431 439.51ZM582.58 439.51L572.654 439.51L572.654 437.51L582.58 437.51L582.58 439.51ZM562.729 439.51L552.803 439.51L552.803 437.51L562.729 437.51L562.729 439.51ZM542.877 439.51L532.952 439.51L532.952 437.51L542.877 437.51L542.877 439.51ZM523.026 439.51L513.101 439.51L513.101 437.51L523.026 437.51L523.026 439.51ZM503.175 439.51L493.25 439.51L493.25 437.51L503.175 437.51L503.175 439.51ZM483.324 439.51L473.399 439.51L473.399 437.51L483.324 437.51L483.324 439.51ZM463.473 439.51L453.548 439.51L453.548 437.51L463.473 437.51L463.473 439.51ZM443.622 439.51L433.697 439.51L433.697 437.51L443.622 437.51L443.622 439.51ZM423.771 439.51L413.845 439.51L413.846 437.51L423.771 437.51L423.771 439.51ZM403.92 439.51L393.994 439.51L393.994 437.51L403.92 437.51L403.92 439.51ZM384.069 439.51L374.143 439.51L374.143 437.51L384.069 437.51L384.069 439.51ZM364.218 439.51L354.292 439.51L354.292 437.51L364.218 437.51L364.218 439.51ZM344.367 439.51L334.441 439.51L334.441 437.51L344.367 437.51L344.367 439.51ZM324.516 439.51L314.59 439.51L314.59 437.51L324.516 437.51L324.516 439.51ZM304.665 439.51L294.739 439.51L294.739 437.51L304.665 437.51L304.665 439.51ZM284.813 439.51L274.888 439.51L274.888 437.51L284.813 437.51L284.813 439.51ZM264.962 439.51L260 439.51L260 437.51L264.962 437.51L264.962 439.51ZM1193 438.51L1193 436.51L1193 438.51ZM1228 403.51L1230 403.51L1228 403.51ZM1226.59 316.586C1227.37 315.805 1228.63 315.805 1229.41 316.586L1242.14 329.314C1242.92 330.095 1242.92 331.361 1242.14 332.142C1241.36 332.923 1240.09 332.923 1239.31 332.142L1228 320.828L1216.69 332.142C1215.91 332.923 1214.64 332.923 1213.86 332.142C1213.08 331.361 1213.08 330.095 1213.86 329.314L1226.59 316.586ZM1230 318L1230 323.344L1226 323.344L1226 318L1230 318ZM1230 334.033L1230 344.722L1226 344.722L1226 334.033L1230 334.033ZM1230 355.411L1230 366.1L1226 366.1L1226 355.411L1230 355.411ZM1230 376.788L1230 387.477L1226 387.477L1226 376.788L1230 376.788ZM1230 398.166L1230 403.51L1226 403.51L1226 398.166L1230 398.166ZM1230 403.51C1230 405.146 1229.89 406.759 1229.69 408.34L1225.72 407.823C1225.9 406.412 1226 404.973 1226 403.51L1230 403.51ZM1227.19 417.674C1225.94 420.683 1224.31 423.491 1222.35 426.036L1219.18 423.599C1220.93 421.328 1222.38 418.823 1223.5 416.142L1227.19 417.674ZM1215.53 432.865C1212.98 434.821 1210.17 436.454 1207.16 437.702L1205.63 434.007C1208.31 432.895 1210.82 431.439 1213.09 429.693L1215.53 432.865ZM1197.83 440.198C1196.25 440.404 1194.64 440.51 1193 440.51L1193 436.51C1194.46 436.51 1195.9 436.415 1197.31 436.231L1197.83 440.198ZM1193 440.51L1188.04 440.51L1188.04 436.51L1193 436.51L1193 440.51ZM1178.11 440.51L1168.19 440.51L1168.19 436.51L1178.11 436.51L1178.11 440.51ZM1158.26 440.51L1148.34 440.51L1148.34 436.51L1158.26 436.51L1158.26 440.51ZM1138.41 440.51L1128.48 440.51L1128.48 436.51L1138.41 436.51L1138.41 440.51ZM1118.56 440.51L1108.63 440.51L1108.63 436.51L1118.56 436.51L1118.56 440.51ZM1098.71 440.51L1088.78 440.51L1088.78 436.51L1098.71 436.51L1098.71 440.51ZM1078.86 440.51L1068.93 440.51L1068.93 436.51L1078.86 436.51L1078.86 440.51ZM1059.01 440.51L1049.08 440.51L1049.08 436.51L1059.01 436.51L1059.01 440.51ZM1039.15 440.51L1029.23 440.51L1029.23 436.51L1039.15 436.51L1039.15 440.51ZM1019.3 440.51L1009.38 440.51L1009.38 436.51L1019.3 436.51L1019.3 440.51ZM999.452 440.51L989.527 440.51L989.527 436.51L999.452 436.51L999.452 440.51ZM979.601 440.51L969.676 440.51L969.676 436.51L979.601 436.51L979.601 440.51ZM959.75 440.51L949.824 440.51L949.824 436.51L959.75 436.51L959.75 440.51ZM939.899 440.51L929.973 440.51L929.973 436.51L939.899 436.51L939.899 440.51ZM920.048 440.51L910.122 440.51L910.122 436.51L920.048 436.51L920.048 440.51ZM900.197 440.51L890.271 440.51L890.271 436.51L900.197 436.51L900.197 440.51ZM880.346 440.51L870.42 440.51L870.42 436.51L880.346 436.51L880.346 440.51ZM860.495 440.51L850.569 440.51L850.569 436.51L860.495 436.51L860.495 440.51ZM840.644 440.51L830.718 440.51L830.718 436.51L840.644 436.51L840.644 440.51ZM820.792 440.51L810.867 440.51L810.867 436.51L820.792 436.51L820.792 440.51ZM800.941 440.51L791.016 440.51L791.016 436.51L800.941 436.51L800.941 440.51ZM781.09 440.51L771.165 440.51L771.165 436.51L781.09 436.51L781.09 440.51ZM761.239 440.51L751.314 440.51L751.314 436.51L761.239 436.51L761.239 440.51ZM741.388 440.51L731.463 440.51L731.463 436.51L741.388 436.51L741.388 440.51ZM721.537 440.51L711.612 440.51L711.612 436.51L721.537 436.51L721.537 440.51ZM701.686 440.51L691.761 440.51L691.76 436.51L701.686 436.51L701.686 440.51ZM681.835 440.51L671.909 440.51L671.909 436.51L681.835 436.51L681.835 440.51ZM661.984 440.51L652.058 440.51L652.058 436.51L661.984 436.51L661.984 440.51ZM642.133 440.51L632.207 440.51L632.207 436.51L642.133 436.51L642.133 440.51ZM622.282 440.51L612.356 440.51L612.356 436.51L622.282 436.51L622.282 440.51ZM602.431 440.51L592.505 440.51L592.505 436.51L602.431 436.51L602.431 440.51ZM582.58 440.51L572.654 440.51L572.654 436.51L582.58 436.51L582.58 440.51ZM562.729 440.51L552.803 440.51L552.803 436.51L562.729 436.51L562.729 440.51ZM542.877 440.51L532.952 440.51L532.952 436.51L542.877 436.51L542.877 440.51ZM523.026 440.51L513.101 440.51L513.101 436.51L523.026 436.51L523.026 440.51ZM503.175 440.51L493.25 440.51L493.25 436.51L503.175 436.51L503.175 440.51ZM483.324 440.51L473.399 440.51L473.399 436.51L483.324 436.51L483.324 440.51ZM463.473 440.51L453.548 440.51L453.548 436.51L463.473 436.51L463.473 440.51ZM443.622 440.51L433.697 440.51L433.697 436.51L443.622 436.51L443.622 440.51ZM423.771 440.51L413.845 440.51L413.846 436.51L423.771 436.51L423.771 440.51ZM403.92 440.51L393.994 440.51L393.994 436.51L403.92 436.51L403.92 440.51ZM384.069 440.51L374.143 440.51L374.143 436.51L384.069 436.51L384.069 440.51ZM364.218 440.51L354.292 440.51L354.292 436.51L364.218 436.51L364.218 440.51ZM344.367 440.51L334.441 440.51L334.441 436.51L344.367 436.51L344.367 440.51ZM324.516 440.51L314.59 440.51L314.59 436.51L324.516 436.51L324.516 440.51ZM304.665 440.51L294.739 440.51L294.739 436.51L304.665 436.51L304.665 440.51ZM284.813 440.51L274.888 440.51L274.888 436.51L284.813 436.51L284.813 440.51ZM264.962 440.51L260 440.51L260 436.51L264.962 436.51L264.962 440.51Z" fill="black"/>
<line x1="118" y1="144" x2="118" y2="290" stroke="black" stroke-width="4" stroke-dasharray="15 15"/>
</svg>
