<svg width="1737" height="1047" viewBox="0 0 1737 1047" fill="none" xmlns="http://www.w3.org/2000/svg">
<path d="M234.354 275H223.404V257.275H234.354V260.075H226.404V264.775H233.604V267.5H226.404V272.2H234.354V275ZM240.36 267.975V275H237.46V262.825H240.285V264.45C241.085 263.05 242.535 262.475 243.885 262.475C246.86 262.475 248.285 264.625 248.285 267.3V275H245.385V267.8C245.385 266.3 244.71 265.1 242.885 265.1C241.235 265.1 240.36 266.375 240.36 267.975ZM255.491 259.1V262.825H258.016V265.4H255.491V271.05C255.491 272.125 255.966 272.575 257.041 272.575C257.441 272.575 257.916 272.5 258.041 272.475V274.875C257.866 274.95 257.316 275.15 256.266 275.15C254.016 275.15 252.616 273.8 252.616 271.525V265.4H250.366V262.825H250.991C252.291 262.825 252.866 262 252.866 260.925V259.1H255.491ZM262.899 267.575H268.874C268.824 266.15 267.874 264.875 265.874 264.875C264.049 264.875 262.999 266.275 262.899 267.575ZM269.199 270.75L271.649 271.525C270.999 273.65 269.074 275.375 266.149 275.375C262.849 275.375 259.924 272.975 259.924 268.85C259.924 265 262.774 262.45 265.849 262.45C269.599 262.45 271.799 264.925 271.799 268.775C271.799 269.25 271.749 269.65 271.724 269.7H262.824C262.899 271.55 264.349 272.875 266.149 272.875C267.899 272.875 268.799 271.95 269.199 270.75ZM281.695 262.75V265.7C281.37 265.65 281.045 265.625 280.745 265.625C278.495 265.625 277.47 266.925 277.47 269.2V275H274.57V262.825H277.395V264.775C277.97 263.45 279.32 262.675 280.92 262.675C281.27 262.675 281.57 262.725 281.695 262.75ZM293.968 279.925H290.868L293.793 273.55L288.593 262.825H291.868L295.368 270.525L298.643 262.825H301.718L293.968 279.925ZM308.631 272.775C310.431 272.775 312.031 271.45 312.031 268.9C312.031 266.375 310.431 265.075 308.631 265.075C306.856 265.075 305.231 266.375 305.231 268.9C305.231 271.425 306.856 272.775 308.631 272.775ZM308.631 262.45C312.281 262.45 314.956 265.175 314.956 268.9C314.956 272.65 312.281 275.375 308.631 275.375C305.006 275.375 302.331 272.65 302.331 268.9C302.331 265.175 305.006 262.45 308.631 262.45ZM325.61 273.65C325.01 274.75 323.585 275.35 322.16 275.35C319.26 275.35 317.56 273.2 317.56 270.5V262.825H320.46V269.975C320.46 271.475 321.16 272.75 322.91 272.75C324.585 272.75 325.46 271.625 325.46 270.025V262.825H328.36V272.775C328.36 273.775 328.435 274.55 328.485 275H325.71C325.66 274.725 325.61 274.15 325.61 273.65ZM339.239 262.75V265.7C338.914 265.65 338.589 265.625 338.289 265.625C336.039 265.625 335.014 266.925 335.014 269.2V275H332.114V262.825H334.939V264.775C335.514 263.45 336.864 262.675 338.464 262.675C338.814 262.675 339.114 262.725 339.239 262.75ZM351.487 259.1V262.825H354.012V265.4H351.487V271.05C351.487 272.125 351.962 272.575 353.037 272.575C353.437 272.575 353.912 272.5 354.037 272.475V274.875C353.862 274.95 353.312 275.15 352.262 275.15C350.012 275.15 348.612 273.8 348.612 271.525V265.4H346.362V262.825H346.987C348.287 262.825 348.862 262 348.862 260.925V259.1H351.487ZM358.895 267.575H364.87C364.82 266.15 363.87 264.875 361.87 264.875C360.045 264.875 358.995 266.275 358.895 267.575ZM365.195 270.75L367.645 271.525C366.995 273.65 365.07 275.375 362.145 275.375C358.845 275.375 355.92 272.975 355.92 268.85C355.92 265 358.77 262.45 361.845 262.45C365.595 262.45 367.795 264.925 367.795 268.775C367.795 269.25 367.745 269.65 367.72 269.7H358.82C358.895 271.55 360.345 272.875 362.145 272.875C363.895 272.875 364.795 271.95 365.195 270.75ZM369.816 271.7C369.816 269.525 371.416 268.325 373.491 268.025L376.616 267.55C377.316 267.45 377.516 267.1 377.516 266.675C377.516 265.65 376.816 264.825 375.216 264.825C373.691 264.825 372.841 265.8 372.716 267.025L370.066 266.425C370.291 264.325 372.191 262.45 375.191 262.45C378.941 262.45 380.366 264.575 380.366 267V273.05C380.366 274.15 380.491 274.875 380.516 275H377.816C377.791 274.925 377.691 274.425 377.691 273.45C377.116 274.375 375.916 275.375 373.941 275.375C371.391 275.375 369.816 273.625 369.816 271.7ZM374.491 273.1C376.116 273.1 377.516 272.325 377.516 269.95V269.4L374.341 269.875C373.441 270.025 372.716 270.525 372.716 271.525C372.716 272.35 373.341 273.1 374.491 273.1ZM386.747 275H383.872V262.825H386.647V264.375C387.347 263.125 388.872 262.475 390.247 262.475C391.847 262.475 393.247 263.2 393.897 264.625C394.847 263.025 396.272 262.475 397.847 262.475C400.047 262.475 402.147 263.875 402.147 267.1V275H399.347V267.575C399.347 266.15 398.622 265.075 396.997 265.075C395.472 265.075 394.472 266.275 394.472 267.775V275H391.622V267.575C391.622 266.175 390.922 265.075 389.272 265.075C387.722 265.075 386.747 266.225 386.747 267.775V275ZM403.576 258.775C403.576 257.875 404.351 257.075 405.426 257.075C406.626 257.075 407.501 258.025 407.501 259.4C407.501 262.65 405.326 263.9 403.801 264.05V262.675C404.826 262.475 405.751 261.5 405.801 260.375C405.751 260.4 405.526 260.5 405.276 260.5C404.276 260.5 403.576 259.8 403.576 258.775ZM407.845 271.7L410.37 271C410.47 272.1 411.295 273.075 412.845 273.075C414.045 273.075 414.67 272.425 414.67 271.675C414.67 271.025 414.22 270.525 413.245 270.325L411.445 269.925C409.295 269.45 408.17 268.05 408.17 266.375C408.17 264.25 410.12 262.45 412.645 262.45C416.045 262.45 417.145 264.65 417.345 265.85L414.895 266.55C414.795 265.85 414.27 264.725 412.645 264.725C411.62 264.725 410.895 265.375 410.895 266.125C410.895 266.775 411.37 267.25 412.12 267.4L413.97 267.775C416.27 268.275 417.47 269.675 417.47 271.475C417.47 273.325 415.97 275.375 412.87 275.375C409.345 275.375 407.995 273.075 407.845 271.7ZM425.797 271.7C425.797 269.525 427.397 268.325 429.472 268.025L432.597 267.55C433.297 267.45 433.497 267.1 433.497 266.675C433.497 265.65 432.797 264.825 431.197 264.825C429.672 264.825 428.822 265.8 428.697 267.025L426.047 266.425C426.272 264.325 428.172 262.45 431.172 262.45C434.922 262.45 436.347 264.575 436.347 267V273.05C436.347 274.15 436.472 274.875 436.497 275H433.797C433.772 274.925 433.672 274.425 433.672 273.45C433.097 274.375 431.897 275.375 429.922 275.375C427.372 275.375 425.797 273.625 425.797 271.7ZM430.472 273.1C432.097 273.1 433.497 272.325 433.497 269.95V269.4L430.322 269.875C429.422 270.025 428.697 270.525 428.697 271.525C428.697 272.35 429.322 273.1 430.472 273.1ZM445.129 265.125C443.354 265.125 441.779 266.45 441.779 268.9C441.779 271.35 443.354 272.725 445.179 272.725C447.079 272.725 447.954 271.4 448.229 270.475L450.779 271.4C450.204 273.3 448.379 275.375 445.179 275.375C441.604 275.375 438.879 272.6 438.879 268.9C438.879 265.15 441.604 262.45 445.104 262.45C448.379 262.45 450.179 264.5 450.679 266.45L448.079 267.4C447.804 266.325 446.979 265.125 445.129 265.125ZM458.532 265.125C456.757 265.125 455.182 266.45 455.182 268.9C455.182 271.35 456.757 272.725 458.582 272.725C460.482 272.725 461.357 271.4 461.632 270.475L464.182 271.4C463.607 273.3 461.782 275.375 458.582 275.375C455.007 275.375 452.282 272.6 452.282 268.9C452.282 265.15 455.007 262.45 458.507 262.45C461.782 262.45 463.582 264.5 464.082 266.45L461.482 267.4C461.207 266.325 460.382 265.125 458.532 265.125ZM474.511 273.65C473.911 274.75 472.486 275.35 471.061 275.35C468.161 275.35 466.461 273.2 466.461 270.5V262.825H469.361V269.975C469.361 271.475 470.061 272.75 471.811 272.75C473.486 272.75 474.361 271.625 474.361 270.025V262.825H477.261V272.775C477.261 273.775 477.336 274.55 477.386 275H474.611C474.561 274.725 474.511 274.15 474.511 273.65ZM488.14 262.75V265.7C487.815 265.65 487.49 265.625 487.19 265.625C484.94 265.625 483.915 266.925 483.915 269.2V275H481.015V262.825H483.84V264.775C484.415 263.45 485.765 262.675 487.365 262.675C487.715 262.675 488.015 262.725 488.14 262.75ZM489.835 271.7C489.835 269.525 491.435 268.325 493.51 268.025L496.635 267.55C497.335 267.45 497.535 267.1 497.535 266.675C497.535 265.65 496.835 264.825 495.235 264.825C493.71 264.825 492.86 265.8 492.735 267.025L490.085 266.425C490.31 264.325 492.21 262.45 495.21 262.45C498.96 262.45 500.385 264.575 500.385 267V273.05C500.385 274.15 500.51 274.875 500.535 275H497.835C497.81 274.925 497.71 274.425 497.71 273.45C497.135 274.375 495.935 275.375 493.96 275.375C491.41 275.375 489.835 273.625 489.835 271.7ZM494.51 273.1C496.135 273.1 497.535 272.325 497.535 269.95V269.4L494.36 269.875C493.46 270.025 492.735 270.525 492.735 271.525C492.735 272.35 493.36 273.1 494.51 273.1ZM507.517 259.1V262.825H510.042V265.4H507.517V271.05C507.517 272.125 507.992 272.575 509.067 272.575C509.467 272.575 509.942 272.5 510.067 272.475V274.875C509.892 274.95 509.342 275.15 508.292 275.15C506.042 275.15 504.642 273.8 504.642 271.525V265.4H502.392V262.825H503.017C504.317 262.825 504.892 262 504.892 260.925V259.1H507.517ZM514.925 267.575H520.9C520.85 266.15 519.9 264.875 517.9 264.875C516.075 264.875 515.025 266.275 514.925 267.575ZM521.225 270.75L523.675 271.525C523.025 273.65 521.1 275.375 518.175 275.375C514.875 275.375 511.95 272.975 511.95 268.85C511.95 265 514.8 262.45 517.875 262.45C521.625 262.45 523.825 264.925 523.825 268.775C523.825 269.25 523.775 269.65 523.75 269.7H514.85C514.925 271.55 516.375 272.875 518.175 272.875C519.925 272.875 520.825 271.95 521.225 270.75ZM278.983 307H276.108V294.825H278.983V307ZM275.658 290.55C275.658 289.5 276.508 288.65 277.533 288.65C278.583 288.65 279.433 289.5 279.433 290.55C279.433 291.6 278.583 292.425 277.533 292.425C276.508 292.425 275.658 291.6 275.658 290.55ZM285.624 299.975V307H282.724V294.825H285.549V296.45C286.349 295.05 287.799 294.475 289.149 294.475C292.124 294.475 293.549 296.625 293.549 299.3V307H290.649V299.8C290.649 298.3 289.974 297.1 288.149 297.1C286.499 297.1 285.624 298.375 285.624 299.975ZM302.48 291.375C301.705 291.375 300.68 291.725 300.68 293.225V294.825H303.505V297.35H300.68V307H297.755V297.35H295.63V294.825H297.755V293.15C297.755 290.425 299.505 288.775 302.005 288.775C302.73 288.775 303.33 288.925 303.53 289.025V291.5C303.355 291.45 303.03 291.375 302.48 291.375ZM310.804 304.775C312.604 304.775 314.204 303.45 314.204 300.9C314.204 298.375 312.604 297.075 310.804 297.075C309.029 297.075 307.404 298.375 307.404 300.9C307.404 303.425 309.029 304.775 310.804 304.775ZM310.804 294.45C314.454 294.45 317.129 297.175 317.129 300.9C317.129 304.65 314.454 307.375 310.804 307.375C307.179 307.375 304.504 304.65 304.504 300.9C304.504 297.175 307.179 294.45 310.804 294.45ZM327.056 294.75V297.7C326.731 297.65 326.406 297.625 326.106 297.625C323.856 297.625 322.831 298.925 322.831 301.2V307H319.931V294.825H322.756V296.775C323.331 295.45 324.681 294.675 326.281 294.675C326.631 294.675 326.931 294.725 327.056 294.75ZM332.352 307H329.477V294.825H332.252V296.375C332.952 295.125 334.477 294.475 335.852 294.475C337.452 294.475 338.852 295.2 339.502 296.625C340.452 295.025 341.877 294.475 343.452 294.475C345.652 294.475 347.752 295.875 347.752 299.1V307H344.952V299.575C344.952 298.15 344.227 297.075 342.602 297.075C341.077 297.075 340.077 298.275 340.077 299.775V307H337.227V299.575C337.227 298.175 336.527 297.075 334.877 297.075C333.327 297.075 332.352 298.225 332.352 299.775V307ZM350.553 303.7C350.553 301.525 352.153 300.325 354.228 300.025L357.353 299.55C358.053 299.45 358.253 299.1 358.253 298.675C358.253 297.65 357.553 296.825 355.953 296.825C354.428 296.825 353.578 297.8 353.453 299.025L350.803 298.425C351.028 296.325 352.928 294.45 355.928 294.45C359.678 294.45 361.103 296.575 361.103 299V305.05C361.103 306.15 361.228 306.875 361.253 307H358.553C358.528 306.925 358.428 306.425 358.428 305.45C357.853 306.375 356.653 307.375 354.678 307.375C352.128 307.375 350.553 305.625 350.553 303.7ZM355.228 305.1C356.853 305.1 358.253 304.325 358.253 301.95V301.4L355.078 301.875C354.178 302.025 353.453 302.525 353.453 303.525C353.453 304.35 354.078 305.1 355.228 305.1ZM368.235 291.1V294.825H370.76V297.4H368.235V303.05C368.235 304.125 368.71 304.575 369.785 304.575C370.185 304.575 370.66 304.5 370.785 304.475V306.875C370.61 306.95 370.06 307.15 369.01 307.15C366.76 307.15 365.36 305.8 365.36 303.525V297.4H363.11V294.825H363.735C365.035 294.825 365.61 294 365.61 292.925V291.1H368.235ZM376.615 307H373.74V294.825H376.615V307ZM373.29 290.55C373.29 289.5 374.14 288.65 375.165 288.65C376.215 288.65 377.065 289.5 377.065 290.55C377.065 291.6 376.215 292.425 375.165 292.425C374.14 292.425 373.29 291.6 373.29 290.55ZM385.706 304.775C387.506 304.775 389.106 303.45 389.106 300.9C389.106 298.375 387.506 297.075 385.706 297.075C383.931 297.075 382.306 298.375 382.306 300.9C382.306 303.425 383.931 304.775 385.706 304.775ZM385.706 294.45C389.356 294.45 392.031 297.175 392.031 300.9C392.031 304.65 389.356 307.375 385.706 307.375C382.081 307.375 379.406 304.65 379.406 300.9C379.406 297.175 382.081 294.45 385.706 294.45ZM397.733 299.975V307H394.833V294.825H397.658V296.45C398.458 295.05 399.908 294.475 401.258 294.475C404.233 294.475 405.658 296.625 405.658 299.3V307H402.758V299.8C402.758 298.3 402.083 297.1 400.258 297.1C398.608 297.1 397.733 298.375 397.733 299.975ZM418.29 299.85V307H415.39V288.9H418.29V296C419.115 294.925 420.49 294.475 421.765 294.475C424.765 294.475 426.215 296.625 426.215 299.3V307H423.315V299.8C423.315 298.3 422.64 297.1 420.815 297.1C419.215 297.1 418.34 298.3 418.29 299.85ZM431.771 299.575H437.746C437.696 298.15 436.746 296.875 434.746 296.875C432.921 296.875 431.871 298.275 431.771 299.575ZM438.071 302.75L440.521 303.525C439.871 305.65 437.946 307.375 435.021 307.375C431.721 307.375 428.796 304.975 428.796 300.85C428.796 297 431.646 294.45 434.721 294.45C438.471 294.45 440.671 296.925 440.671 300.775C440.671 301.25 440.621 301.65 440.596 301.7H431.696C431.771 303.55 433.221 304.875 435.021 304.875C436.771 304.875 437.671 303.95 438.071 302.75ZM450.567 294.75V297.7C450.242 297.65 449.917 297.625 449.617 297.625C447.367 297.625 446.342 298.925 446.342 301.2V307H443.442V294.825H446.267V296.775C446.842 295.45 448.192 294.675 449.792 294.675C450.142 294.675 450.442 294.725 450.567 294.75ZM454.891 299.575H460.866C460.816 298.15 459.866 296.875 457.866 296.875C456.041 296.875 454.991 298.275 454.891 299.575ZM461.191 302.75L463.641 303.525C462.991 305.65 461.066 307.375 458.141 307.375C454.841 307.375 451.916 304.975 451.916 300.85C451.916 297 454.766 294.45 457.841 294.45C461.591 294.45 463.791 296.925 463.791 300.775C463.791 301.25 463.741 301.65 463.716 301.7H454.816C454.891 303.55 456.341 304.875 458.141 304.875C459.891 304.875 460.791 303.95 461.191 302.75ZM466.045 305.125C466.045 304 466.945 303.075 468.07 303.075C469.195 303.075 470.12 304 470.12 305.125C470.12 306.25 469.195 307.15 468.07 307.15C466.945 307.15 466.045 306.25 466.045 305.125Z" fill="black"/>
<path d="M883.25 338H848.875V321.5H908V336L885.875 357.125C897.875 359.125 909.375 365.375 909.375 381.75C909.375 398.375 897.375 410.5 877.875 410.5C862.125 410.5 851.25 404.25 843.75 395.375L857 382.75C863 389.5 869.25 393.25 878.125 393.25C885.375 393.25 890.5 389.125 890.5 382.5C890.5 375.25 884.375 371.25 873.375 371.25H865.375L862.375 359L883.25 338ZM944.637 409H924.387V389H944.637V409Z" fill="#003149"/>
<circle cx="883.5" cy="374.5" r="113" stroke="black" stroke-width="5" stroke-dasharray="10 10"/>
<path d="M162.5 71.0001L162.5 72.0001L162.5 72.0001L162.5 71.0001ZM127.5 106L128.5 106L127.5 106ZM127.5 336.5L126.5 336.5L126.5 336.5L127.5 336.5ZM162.5 371.5L162.5 372.5L162.5 372.5L162.5 371.5ZM717.207 372.207C717.598 371.817 717.598 371.183 717.207 370.793L710.843 364.429C710.453 364.038 709.819 364.038 709.429 364.429C709.038 364.82 709.038 365.453 709.429 365.843L715.086 371.5L709.429 377.157C709.038 377.547 709.038 378.181 709.429 378.571C709.819 378.962 710.453 378.962 710.843 378.571L717.207 372.207ZM293.5 70.0002L288.821 70.0002L288.821 72.0002L293.5 72.0002L293.5 70.0002ZM279.464 70.0002L270.107 70.0002L270.107 72.0002L279.464 72.0002L279.464 70.0002ZM260.75 70.0002L251.393 70.0002L251.393 72.0002L260.75 72.0002L260.75 70.0002ZM242.036 70.0002L232.679 70.0002L232.679 72.0002L242.036 72.0002L242.036 70.0002ZM223.321 70.0002L213.964 70.0001L213.964 72.0001L223.321 72.0002L223.321 70.0002ZM204.607 70.0001L195.25 70.0001L195.25 72.0001L204.607 72.0001L204.607 70.0001ZM185.893 70.0001L176.536 70.0001L176.536 72.0001L185.893 72.0001L185.893 70.0001ZM167.179 70.0001L162.5 70.0001L162.5 72.0001L167.179 72.0001L167.179 70.0001ZM162.5 70.0001C160.907 70.0001 159.338 70.1036 157.799 70.3043L158.058 72.2875C159.511 72.098 160.994 72.0001 162.5 72.0001L162.5 70.0001ZM148.719 72.7322C145.792 73.9461 143.06 75.5348 140.583 77.4382L141.802 79.024C144.142 77.2259 146.722 75.7257 149.486 74.5796L148.719 72.7322ZM133.938 84.0833C132.035 86.5602 130.446 89.2922 129.232 92.2195L131.08 92.9856C132.226 90.222 133.726 87.6419 135.524 85.302L133.938 84.0833ZM126.804 101.299C126.604 102.838 126.5 104.407 126.5 106L128.5 106C128.5 104.494 128.598 103.011 128.787 101.558L126.804 101.299ZM126.5 106L126.5 110.802L128.5 110.802L128.5 106L126.5 106ZM126.5 120.406L126.5 130.011L128.5 130.011L128.5 120.406L126.5 120.406ZM126.5 139.615L126.5 149.219L128.5 149.219L128.5 139.615L126.5 139.615ZM126.5 158.823L126.5 168.427L128.5 168.427L128.5 158.823L126.5 158.823ZM126.5 178.031L126.5 187.636L128.5 187.636L128.5 178.031L126.5 178.031ZM126.5 197.24L126.5 206.844L128.5 206.844L128.5 197.24L126.5 197.24ZM126.5 216.448L126.5 226.052L128.5 226.052L128.5 216.448L126.5 216.448ZM126.5 235.656L126.5 245.261L128.5 245.261L128.5 235.656L126.5 235.656ZM126.5 254.865L126.5 264.469L128.5 264.469L128.5 254.865L126.5 254.865ZM126.5 274.073L126.5 283.677L128.5 283.677L128.5 274.073L126.5 274.073ZM126.5 293.281L126.5 302.886L128.5 302.886L128.5 293.281L126.5 293.281ZM126.5 312.49L126.5 322.094L128.5 322.094L128.5 312.49L126.5 312.49ZM126.5 331.698L126.5 336.5L128.5 336.5L128.5 331.698L126.5 331.698ZM126.5 336.5C126.5 338.093 126.604 339.662 126.804 341.201L128.787 340.942C128.598 339.489 128.5 338.006 128.5 336.5L126.5 336.5ZM129.232 350.281C130.446 353.208 132.035 355.94 133.938 358.417L135.524 357.198C133.726 354.858 132.226 352.278 131.08 349.515L129.232 350.281ZM140.583 365.062C143.06 366.965 145.792 368.554 148.719 369.768L149.486 367.921C146.722 366.775 144.142 365.274 141.802 363.476L140.583 365.062ZM157.799 372.196C159.338 372.397 160.907 372.5 162.5 372.5L162.5 370.5C160.994 370.5 159.511 370.402 158.058 370.213L157.799 372.196ZM162.5 372.5L167.446 372.5L167.446 370.5L162.5 370.5L162.5 372.5ZM177.339 372.5L187.232 372.5L187.232 370.5L177.339 370.5L177.339 372.5ZM197.125 372.5L207.018 372.5L207.018 370.5L197.125 370.5L197.125 372.5ZM216.911 372.5L226.804 372.5L226.804 370.5L216.911 370.5L216.911 372.5ZM236.696 372.5L246.589 372.5L246.589 370.5L236.696 370.5L236.696 372.5ZM256.482 372.5L266.375 372.5L266.375 370.5L256.482 370.5L256.482 372.5ZM276.268 372.5L286.161 372.5L286.161 370.5L276.268 370.5L276.268 372.5ZM296.054 372.5L305.946 372.5L305.946 370.5L296.054 370.5L296.054 372.5ZM315.839 372.5L325.732 372.5L325.732 370.5L315.839 370.5L315.839 372.5ZM335.625 372.5L345.518 372.5L345.518 370.5L335.625 370.5L335.625 372.5ZM355.411 372.5L365.304 372.5L365.304 370.5L355.411 370.5L355.411 372.5ZM375.196 372.5L385.089 372.5L385.089 370.5L375.196 370.5L375.196 372.5ZM394.982 372.5L404.875 372.5L404.875 370.5L394.982 370.5L394.982 372.5ZM414.768 372.5L424.661 372.5L424.661 370.5L414.768 370.5L414.768 372.5ZM434.554 372.5L444.446 372.5L444.446 370.5L434.554 370.5L434.554 372.5ZM454.339 372.5L464.232 372.5L464.232 370.5L454.339 370.5L454.339 372.5ZM474.125 372.5L484.018 372.5L484.018 370.5L474.125 370.5L474.125 372.5ZM493.911 372.5L503.803 372.5L503.803 370.5L493.911 370.5L493.911 372.5ZM513.696 372.5L523.589 372.5L523.589 370.5L513.696 370.5L513.696 372.5ZM533.482 372.5L543.375 372.5L543.375 370.5L533.482 370.5L533.482 372.5ZM553.268 372.5L563.161 372.5L563.161 370.5L553.268 370.5L553.268 372.5ZM573.053 372.5L582.946 372.5L582.946 370.5L573.053 370.5L573.053 372.5ZM592.839 372.5L602.732 372.5L602.732 370.5L592.839 370.5L592.839 372.5ZM612.625 372.5L622.518 372.5L622.518 370.5L612.625 370.5L612.625 372.5ZM632.411 372.5L642.303 372.5L642.303 370.5L632.411 370.5L632.411 372.5ZM652.196 372.5L662.089 372.5L662.089 370.5L652.196 370.5L652.196 372.5ZM671.982 372.5L681.875 372.5L681.875 370.5L671.982 370.5L671.982 372.5ZM691.768 372.5L701.661 372.5L701.661 370.5L691.768 370.5L691.768 372.5ZM711.553 372.5L716.5 372.5L716.5 370.5L711.553 370.5L711.553 372.5ZM162.5 71.0001L162.5 72.0001L162.5 72.0001L162.5 71.0001ZM127.5 106L128.5 106L127.5 106ZM127.5 336.5L126.5 336.5L126.5 336.5L127.5 336.5ZM162.5 371.5L162.5 372.5L162.5 372.5L162.5 371.5ZM717.207 372.207C717.598 371.817 717.598 371.183 717.207 370.793L710.843 364.429C710.453 364.038 709.819 364.038 709.429 364.429C709.038 364.82 709.038 365.453 709.429 365.843L715.086 371.5L709.429 377.157C709.038 377.547 709.038 378.181 709.429 378.571C709.819 378.962 710.453 378.962 710.843 378.571L717.207 372.207ZM293.5 70.0002L288.821 70.0002L288.821 72.0002L293.5 72.0002L293.5 70.0002ZM279.464 70.0002L270.107 70.0002L270.107 72.0002L279.464 72.0002L279.464 70.0002ZM260.75 70.0002L251.393 70.0002L251.393 72.0002L260.75 72.0002L260.75 70.0002ZM242.036 70.0002L232.679 70.0002L232.679 72.0002L242.036 72.0002L242.036 70.0002ZM223.321 70.0002L213.964 70.0001L213.964 72.0001L223.321 72.0002L223.321 70.0002ZM204.607 70.0001L195.25 70.0001L195.25 72.0001L204.607 72.0001L204.607 70.0001ZM185.893 70.0001L176.536 70.0001L176.536 72.0001L185.893 72.0001L185.893 70.0001ZM167.179 70.0001L162.5 70.0001L162.5 72.0001L167.179 72.0001L167.179 70.0001ZM162.5 70.0001C160.907 70.0001 159.338 70.1036 157.799 70.3043L158.058 72.2875C159.511 72.098 160.994 72.0001 162.5 72.0001L162.5 70.0001ZM148.719 72.7322C145.792 73.9461 143.06 75.5348 140.583 77.4382L141.802 79.024C144.142 77.2259 146.722 75.7257 149.486 74.5796L148.719 72.7322ZM133.938 84.0833C132.035 86.5602 130.446 89.2922 129.232 92.2195L131.08 92.9856C132.226 90.222 133.726 87.6419 135.524 85.302L133.938 84.0833ZM126.804 101.299C126.604 102.838 126.5 104.407 126.5 106L128.5 106C128.5 104.494 128.598 103.011 128.787 101.558L126.804 101.299ZM126.5 106L126.5 110.802L128.5 110.802L128.5 106L126.5 106ZM126.5 120.406L126.5 130.011L128.5 130.011L128.5 120.406L126.5 120.406ZM126.5 139.615L126.5 149.219L128.5 149.219L128.5 139.615L126.5 139.615ZM126.5 158.823L126.5 168.427L128.5 168.427L128.5 158.823L126.5 158.823ZM126.5 178.031L126.5 187.636L128.5 187.636L128.5 178.031L126.5 178.031ZM126.5 197.24L126.5 206.844L128.5 206.844L128.5 197.24L126.5 197.24ZM126.5 216.448L126.5 226.052L128.5 226.052L128.5 216.448L126.5 216.448ZM126.5 235.656L126.5 245.261L128.5 245.261L128.5 235.656L126.5 235.656ZM126.5 254.865L126.5 264.469L128.5 264.469L128.5 254.865L126.5 254.865ZM126.5 274.073L126.5 283.677L128.5 283.677L128.5 274.073L126.5 274.073ZM126.5 293.281L126.5 302.886L128.5 302.886L128.5 293.281L126.5 293.281ZM126.5 312.49L126.5 322.094L128.5 322.094L128.5 312.49L126.5 312.49ZM126.5 331.698L126.5 336.5L128.5 336.5L128.5 331.698L126.5 331.698ZM126.5 336.5C126.5 338.093 126.604 339.662 126.804 341.201L128.787 340.942C128.598 339.489 128.5 338.006 128.5 336.5L126.5 336.5ZM129.232 350.281C130.446 353.208 132.035 355.94 133.938 358.417L135.524 357.198C133.726 354.858 132.226 352.278 131.08 349.515L129.232 350.281ZM140.583 365.062C143.06 366.965 145.792 368.554 148.719 369.768L149.486 367.921C146.722 366.775 144.142 365.274 141.802 363.476L140.583 365.062ZM157.799 372.196C159.338 372.397 160.907 372.5 162.5 372.5L162.5 370.5C160.994 370.5 159.511 370.402 158.058 370.213L157.799 372.196ZM162.5 372.5L167.446 372.5L167.446 370.5L162.5 370.5L162.5 372.5ZM177.339 372.5L187.232 372.5L187.232 370.5L177.339 370.5L177.339 372.5ZM197.125 372.5L207.018 372.5L207.018 370.5L197.125 370.5L197.125 372.5ZM216.911 372.5L226.804 372.5L226.804 370.5L216.911 370.5L216.911 372.5ZM236.696 372.5L246.589 372.5L246.589 370.5L236.696 370.5L236.696 372.5ZM256.482 372.5L266.375 372.5L266.375 370.5L256.482 370.5L256.482 372.5ZM276.268 372.5L286.161 372.5L286.161 370.5L276.268 370.5L276.268 372.5ZM296.054 372.5L305.946 372.5L305.946 370.5L296.054 370.5L296.054 372.5ZM315.839 372.5L325.732 372.5L325.732 370.5L315.839 370.5L315.839 372.5ZM335.625 372.5L345.518 372.5L345.518 370.5L335.625 370.5L335.625 372.5ZM355.411 372.5L365.304 372.5L365.304 370.5L355.411 370.5L355.411 372.5ZM375.196 372.5L385.089 372.5L385.089 370.5L375.196 370.5L375.196 372.5ZM394.982 372.5L404.875 372.5L404.875 370.5L394.982 370.5L394.982 372.5ZM414.768 372.5L424.661 372.5L424.661 370.5L414.768 370.5L414.768 372.5ZM434.554 372.5L444.446 372.5L444.446 370.5L434.554 370.5L434.554 372.5ZM454.339 372.5L464.232 372.5L464.232 370.5L454.339 370.5L454.339 372.5ZM474.125 372.5L484.018 372.5L484.018 370.5L474.125 370.5L474.125 372.5ZM493.911 372.5L503.803 372.5L503.803 370.5L493.911 370.5L493.911 372.5ZM513.696 372.5L523.589 372.5L523.589 370.5L513.696 370.5L513.696 372.5ZM533.482 372.5L543.375 372.5L543.375 370.5L533.482 370.5L533.482 372.5ZM553.268 372.5L563.161 372.5L563.161 370.5L553.268 370.5L553.268 372.5ZM573.053 372.5L582.946 372.5L582.946 370.5L573.053 370.5L573.053 372.5ZM592.839 372.5L602.732 372.5L602.732 370.5L592.839 370.5L592.839 372.5ZM612.625 372.5L622.518 372.5L622.518 370.5L612.625 370.5L612.625 372.5ZM632.411 372.5L642.303 372.5L642.303 370.5L632.411 370.5L632.411 372.5ZM652.196 372.5L662.089 372.5L662.089 370.5L652.196 370.5L652.196 372.5ZM671.982 372.5L681.875 372.5L681.875 370.5L671.982 370.5L671.982 372.5ZM691.768 372.5L701.661 372.5L701.661 370.5L691.768 370.5L691.768 372.5ZM711.553 372.5L716.5 372.5L716.5 370.5L711.553 370.5L711.553 372.5Z" fill="black"/>
<path d="M1588.5 370.5L1588.5 371.5L1588.5 371.5L1588.5 370.5ZM1623.5 405.5L1624.5 405.5L1624.5 405.5L1623.5 405.5ZM1623.5 603.5L1622.5 603.5L1622.5 603.5L1623.5 603.5ZM1588.5 638.5L1588.5 637.5H1588.5L1588.5 638.5ZM658.793 637.793C658.402 638.184 658.402 638.817 658.793 639.207L665.157 645.571C665.547 645.962 666.18 645.962 666.571 645.571C666.961 645.181 666.961 644.548 666.571 644.157L660.914 638.5L666.571 632.843C666.961 632.453 666.961 631.82 666.571 631.429C666.18 631.039 665.547 631.039 665.157 631.429L658.793 637.793ZM659.5 639.5L664.549 639.5L664.549 637.5L659.5 637.5L659.5 639.5ZM674.647 639.5L684.744 639.5L684.744 637.5L674.647 637.5L674.647 639.5ZM694.842 639.5L704.94 639.5L704.94 637.5L694.842 637.5L694.842 639.5ZM715.038 639.5L725.136 639.5L725.136 637.5L715.038 637.5L715.038 639.5ZM735.233 639.5L745.331 639.5L745.331 637.5L735.233 637.5L735.233 639.5ZM755.429 639.5L765.527 639.5L765.527 637.5L755.429 637.5L755.429 639.5ZM775.625 639.5L785.723 639.5L785.723 637.5L775.625 637.5L775.625 639.5ZM795.82 639.5L805.918 639.5L805.918 637.5L795.82 637.5L795.82 639.5ZM816.016 639.5L826.114 639.5L826.114 637.5L816.016 637.5L816.016 639.5ZM836.212 639.5L846.31 639.5L846.31 637.5L836.212 637.5L836.212 639.5ZM856.407 639.5L866.505 639.5L866.505 637.5L856.407 637.5L856.407 639.5ZM876.603 639.5L886.701 639.5L886.701 637.5L876.603 637.5L876.603 639.5ZM896.799 639.5L906.896 639.5L906.896 637.5L896.799 637.5L896.799 639.5ZM916.994 639.5L927.092 639.5L927.092 637.5L916.994 637.5L916.994 639.5ZM937.19 639.5L947.288 639.5L947.288 637.5L937.19 637.5L937.19 639.5ZM957.386 639.5L967.484 639.5L967.484 637.5L957.386 637.5L957.386 639.5ZM977.581 639.5L987.679 639.5L987.679 637.5L977.581 637.5L977.581 639.5ZM997.777 639.5L1007.87 639.5L1007.87 637.5L997.777 637.5L997.777 639.5ZM1017.97 639.5L1028.07 639.5L1028.07 637.5L1017.97 637.5L1017.97 639.5ZM1038.17 639.5L1048.27 639.5L1048.27 637.5L1038.17 637.5L1038.17 639.5ZM1058.36 639.5L1068.46 639.5L1068.46 637.5L1058.36 637.5L1058.36 639.5ZM1078.56 639.5L1088.66 639.5L1088.66 637.5L1078.56 637.5L1078.56 639.5ZM1098.76 639.5L1108.85 639.5L1108.85 637.5L1098.76 637.5L1098.76 639.5ZM1118.95 639.5L1129.05 639.5L1129.05 637.5L1118.95 637.5L1118.95 639.5ZM1139.15 639.5L1149.24 639.5L1149.24 637.5L1139.15 637.5L1139.15 639.5ZM1159.34 639.5L1169.44 639.5L1169.44 637.5L1159.34 637.5L1159.34 639.5ZM1179.54 639.5L1189.64 639.5L1189.64 637.5L1179.54 637.5L1179.54 639.5ZM1199.73 639.5L1209.83 639.5L1209.83 637.5L1199.73 637.5L1199.73 639.5ZM1219.93 639.5L1230.03 639.5L1230.03 637.5L1219.93 637.5L1219.93 639.5ZM1240.13 639.5L1250.22 639.5L1250.22 637.5L1240.13 637.5L1240.13 639.5ZM1260.32 639.5L1270.42 639.5L1270.42 637.5L1260.32 637.5L1260.32 639.5ZM1280.52 639.5L1290.61 639.5L1290.61 637.5L1280.52 637.5L1280.52 639.5ZM1300.71 639.5L1310.81 639.5L1310.81 637.5L1300.71 637.5L1300.71 639.5ZM1320.91 639.5L1331.01 639.5L1331.01 637.5L1320.91 637.5L1320.91 639.5ZM1341.1 639.5L1351.2 639.5L1351.2 637.5L1341.1 637.5L1341.1 639.5ZM1361.3 639.5L1371.4 639.5L1371.4 637.5L1361.3 637.5L1361.3 639.5ZM1381.49 639.5L1391.59 639.5L1391.59 637.5L1381.49 637.5L1381.49 639.5ZM1401.69 639.5L1411.79 639.5L1411.79 637.5L1401.69 637.5L1401.69 639.5ZM1421.89 639.5L1431.98 639.5L1431.98 637.5L1421.89 637.5L1421.89 639.5ZM1442.08 639.5L1452.18 639.5L1452.18 637.5L1442.08 637.5L1442.08 639.5ZM1462.28 639.5L1472.38 639.5L1472.38 637.5L1462.28 637.5L1462.28 639.5ZM1482.47 639.5L1492.57 639.5L1492.57 637.5L1482.47 637.5L1482.47 639.5ZM1502.67 639.5L1512.77 639.5L1512.77 637.5L1502.67 637.5L1502.67 639.5ZM1522.86 639.5L1532.96 639.5L1532.96 637.5L1522.86 637.5L1522.86 639.5ZM1543.06 639.5L1553.16 639.5L1553.16 637.5L1543.06 637.5L1543.06 639.5ZM1563.26 639.5L1573.35 639.5L1573.35 637.5L1563.26 637.5L1563.26 639.5ZM1583.45 639.5L1588.5 639.5L1588.5 637.5L1583.45 637.5L1583.45 639.5ZM1588.5 639.5C1590.09 639.5 1591.66 639.397 1593.2 639.196L1592.94 637.213C1591.49 637.402 1590.01 637.5 1588.5 637.5L1588.5 639.5ZM1602.28 636.768C1605.21 635.554 1607.94 633.966 1610.42 632.062L1609.2 630.476C1606.86 632.274 1604.28 633.775 1601.51 634.921L1602.28 636.768ZM1617.06 625.417C1618.97 622.94 1620.55 620.208 1621.77 617.281L1619.92 616.515C1618.77 619.278 1617.27 621.858 1615.48 624.198L1617.06 625.417ZM1624.2 608.201C1624.4 606.662 1624.5 605.093 1624.5 603.5L1622.5 603.5C1622.5 605.006 1622.4 606.489 1622.21 607.942L1624.2 608.201ZM1624.5 603.5L1624.5 598.55L1622.5 598.55L1622.5 603.5L1624.5 603.5ZM1624.5 588.65L1624.5 578.75L1622.5 578.75L1622.5 588.65L1624.5 588.65ZM1624.5 568.85L1624.5 558.95L1622.5 558.95L1622.5 568.85L1624.5 568.85ZM1624.5 549.05L1624.5 539.15L1622.5 539.15L1622.5 549.05L1624.5 549.05ZM1624.5 529.25L1624.5 519.35L1622.5 519.35L1622.5 529.25L1624.5 529.25ZM1624.5 509.45L1624.5 499.55L1622.5 499.55L1622.5 509.45L1624.5 509.45ZM1624.5 489.65L1624.5 479.75L1622.5 479.75L1622.5 489.65L1624.5 489.65ZM1624.5 469.85L1624.5 459.95L1622.5 459.95L1622.5 469.85L1624.5 469.85ZM1624.5 450.05L1624.5 440.15L1622.5 440.15L1622.5 450.05L1624.5 450.05ZM1624.5 430.25L1624.5 420.35L1622.5 420.35L1622.5 430.25L1624.5 430.25ZM1624.5 410.45L1624.5 405.5L1622.5 405.5L1622.5 410.45L1624.5 410.45ZM1624.5 405.5C1624.5 403.907 1624.4 402.338 1624.2 400.799L1622.21 401.058C1622.4 402.511 1622.5 403.994 1622.5 405.5L1624.5 405.5ZM1621.77 391.719C1620.55 388.792 1618.97 386.06 1617.06 383.583L1615.48 384.802C1617.27 387.142 1618.77 389.722 1619.92 392.485L1621.77 391.719ZM1610.42 376.938C1607.94 375.035 1605.21 373.446 1602.28 372.232L1601.51 374.079C1604.28 375.226 1606.86 376.726 1609.2 378.524L1610.42 376.938ZM1593.2 369.804C1591.66 369.603 1590.09 369.5 1588.5 369.5L1588.5 371.5C1590.01 371.5 1591.49 371.598 1592.94 371.787L1593.2 369.804ZM1588.5 369.5L1583.57 369.5L1583.57 371.5L1588.5 371.5L1588.5 369.5ZM1573.7 369.5L1563.83 369.5L1563.83 371.5L1573.7 371.5L1573.7 369.5ZM1553.97 369.5L1544.1 369.5L1544.1 371.5L1553.97 371.5L1553.97 369.5ZM1534.24 369.5L1524.37 369.5L1524.37 371.5L1534.24 371.5L1534.24 369.5ZM1514.5 369.5L1504.64 369.5L1504.64 371.5L1514.5 371.5L1514.5 369.5ZM1494.77 369.5L1484.91 369.5L1484.91 371.5L1494.77 371.5L1494.77 369.5ZM1475.04 369.5L1465.17 369.5L1465.17 371.5L1475.04 371.5L1475.04 369.5ZM1455.31 369.5L1445.44 369.5L1445.44 371.5L1455.31 371.5L1455.31 369.5ZM1435.58 369.5L1425.71 369.5L1425.71 371.5L1435.58 371.5L1435.58 369.5ZM1415.84 369.5L1405.98 369.5L1405.98 371.5L1415.84 371.5L1415.84 369.5ZM1396.11 369.5L1386.25 369.5L1386.25 371.5L1396.11 371.5L1396.11 369.5ZM1376.38 369.5L1366.51 369.5L1366.51 371.5L1376.38 371.5L1376.38 369.5ZM1356.65 369.5L1346.78 369.5L1346.78 371.5L1356.65 371.5L1356.65 369.5ZM1336.92 369.5L1327.05 369.5L1327.05 371.5L1336.92 371.5L1336.92 369.5ZM1317.18 369.5L1307.32 369.5L1307.32 371.5L1317.18 371.5L1317.18 369.5ZM1297.45 369.5L1287.58 369.5L1287.58 371.5L1297.45 371.5L1297.45 369.5ZM1277.72 369.5L1267.85 369.5L1267.85 371.5L1277.72 371.5L1277.72 369.5ZM1257.99 369.5L1248.12 369.5L1248.12 371.5L1257.99 371.5L1257.99 369.5ZM1238.25 369.5L1228.39 369.5L1228.39 371.5L1238.25 371.5L1238.25 369.5ZM1218.52 369.5L1208.66 369.5L1208.66 371.5L1218.52 371.5L1218.52 369.5ZM1198.79 369.5L1188.92 369.5L1188.92 371.5L1198.79 371.5L1198.79 369.5ZM1179.06 369.5L1169.19 369.5L1169.19 371.5L1179.06 371.5L1179.06 369.5ZM1159.33 369.5L1149.46 369.5L1149.46 371.5L1159.33 371.5L1159.33 369.5ZM1139.59 369.5L1129.73 369.5L1129.73 371.5L1139.59 371.5L1139.59 369.5ZM1119.86 369.5L1109.99 369.5L1109.99 371.5L1119.86 371.5L1119.86 369.5ZM1100.13 369.5L1090.26 369.5L1090.26 371.5L1100.13 371.5L1100.13 369.5ZM1080.4 369.5L1070.53 369.5L1070.53 371.5L1080.4 371.5L1080.4 369.5ZM1060.66 369.5L1050.8 369.5L1050.8 371.5L1060.66 371.5L1060.66 369.5ZM1040.93 369.5L1036 369.5L1036 371.5L1040.93 371.5L1040.93 369.5ZM1588.5 370.5L1588.5 371.5L1588.5 371.5L1588.5 370.5ZM1623.5 405.5L1624.5 405.5L1624.5 405.5L1623.5 405.5ZM1623.5 603.5L1622.5 603.5L1622.5 603.5L1623.5 603.5ZM1588.5 638.5L1588.5 637.5H1588.5L1588.5 638.5ZM658.793 637.793C658.402 638.184 658.402 638.817 658.793 639.207L665.157 645.571C665.547 645.962 666.18 645.962 666.571 645.571C666.961 645.181 666.961 644.548 666.571 644.157L660.914 638.5L666.571 632.843C666.961 632.453 666.961 631.82 666.571 631.429C666.18 631.039 665.547 631.039 665.157 631.429L658.793 637.793ZM659.5 639.5L664.549 639.5L664.549 637.5L659.5 637.5L659.5 639.5ZM674.647 639.5L684.744 639.5L684.744 637.5L674.647 637.5L674.647 639.5ZM694.842 639.5L704.94 639.5L704.94 637.5L694.842 637.5L694.842 639.5ZM715.038 639.5L725.136 639.5L725.136 637.5L715.038 637.5L715.038 639.5ZM735.233 639.5L745.331 639.5L745.331 637.5L735.233 637.5L735.233 639.5ZM755.429 639.5L765.527 639.5L765.527 637.5L755.429 637.5L755.429 639.5ZM775.625 639.5L785.723 639.5L785.723 637.5L775.625 637.5L775.625 639.5ZM795.82 639.5L805.918 639.5L805.918 637.5L795.82 637.5L795.82 639.5ZM816.016 639.5L826.114 639.5L826.114 637.5L816.016 637.5L816.016 639.5ZM836.212 639.5L846.31 639.5L846.31 637.5L836.212 637.5L836.212 639.5ZM856.407 639.5L866.505 639.5L866.505 637.5L856.407 637.5L856.407 639.5ZM876.603 639.5L886.701 639.5L886.701 637.5L876.603 637.5L876.603 639.5ZM896.799 639.5L906.896 639.5L906.896 637.5L896.799 637.5L896.799 639.5ZM916.994 639.5L927.092 639.5L927.092 637.5L916.994 637.5L916.994 639.5ZM937.19 639.5L947.288 639.5L947.288 637.5L937.19 637.5L937.19 639.5ZM957.386 639.5L967.484 639.5L967.484 637.5L957.386 637.5L957.386 639.5ZM977.581 639.5L987.679 639.5L987.679 637.5L977.581 637.5L977.581 639.5ZM997.777 639.5L1007.87 639.5L1007.87 637.5L997.777 637.5L997.777 639.5ZM1017.97 639.5L1028.07 639.5L1028.07 637.5L1017.97 637.5L1017.97 639.5ZM1038.17 639.5L1048.27 639.5L1048.27 637.5L1038.17 637.5L1038.17 639.5ZM1058.36 639.5L1068.46 639.5L1068.46 637.5L1058.36 637.5L1058.36 639.5ZM1078.56 639.5L1088.66 639.5L1088.66 637.5L1078.56 637.5L1078.56 639.5ZM1098.76 639.5L1108.85 639.5L1108.85 637.5L1098.76 637.5L1098.76 639.5ZM1118.95 639.5L1129.05 639.5L1129.05 637.5L1118.95 637.5L1118.95 639.5ZM1139.15 639.5L1149.24 639.5L1149.24 637.5L1139.15 637.5L1139.15 639.5ZM1159.34 639.5L1169.44 639.5L1169.44 637.5L1159.34 637.5L1159.34 639.5ZM1179.54 639.5L1189.64 639.5L1189.64 637.5L1179.54 637.5L1179.54 639.5ZM1199.73 639.5L1209.83 639.5L1209.83 637.5L1199.73 637.5L1199.73 639.5ZM1219.93 639.5L1230.03 639.5L1230.03 637.5L1219.93 637.5L1219.93 639.5ZM1240.13 639.5L1250.22 639.5L1250.22 637.5L1240.13 637.5L1240.13 639.5ZM1260.32 639.5L1270.42 639.5L1270.42 637.5L1260.32 637.5L1260.32 639.5ZM1280.52 639.5L1290.61 639.5L1290.61 637.5L1280.52 637.5L1280.52 639.5ZM1300.71 639.5L1310.81 639.5L1310.81 637.5L1300.71 637.5L1300.71 639.5ZM1320.91 639.5L1331.01 639.5L1331.01 637.5L1320.91 637.5L1320.91 639.5ZM1341.1 639.5L1351.2 639.5L1351.2 637.5L1341.1 637.5L1341.1 639.5ZM1361.3 639.5L1371.4 639.5L1371.4 637.5L1361.3 637.5L1361.3 639.5ZM1381.49 639.5L1391.59 639.5L1391.59 637.5L1381.49 637.5L1381.49 639.5ZM1401.69 639.5L1411.79 639.5L1411.79 637.5L1401.69 637.5L1401.69 639.5ZM1421.89 639.5L1431.98 639.5L1431.98 637.5L1421.89 637.5L1421.89 639.5ZM1442.08 639.5L1452.18 639.5L1452.18 637.5L1442.08 637.5L1442.08 639.5ZM1462.28 639.5L1472.38 639.5L1472.38 637.5L1462.28 637.5L1462.28 639.5ZM1482.47 639.5L1492.57 639.5L1492.57 637.5L1482.47 637.5L1482.47 639.5ZM1502.67 639.5L1512.77 639.5L1512.77 637.5L1502.67 637.5L1502.67 639.5ZM1522.86 639.5L1532.96 639.5L1532.96 637.5L1522.86 637.5L1522.86 639.5ZM1543.06 639.5L1553.16 639.5L1553.16 637.5L1543.06 637.5L1543.06 639.5ZM1563.26 639.5L1573.35 639.5L1573.35 637.5L1563.26 637.5L1563.26 639.5ZM1583.45 639.5L1588.5 639.5L1588.5 637.5L1583.45 637.5L1583.45 639.5ZM1588.5 639.5C1590.09 639.5 1591.66 639.397 1593.2 639.196L1592.94 637.213C1591.49 637.402 1590.01 637.5 1588.5 637.5L1588.5 639.5ZM1602.28 636.768C1605.21 635.554 1607.94 633.966 1610.42 632.062L1609.2 630.476C1606.86 632.274 1604.28 633.775 1601.51 634.921L1602.28 636.768ZM1617.06 625.417C1618.97 622.94 1620.55 620.208 1621.77 617.281L1619.92 616.515C1618.77 619.278 1617.27 621.858 1615.48 624.198L1617.06 625.417ZM1624.2 608.201C1624.4 606.662 1624.5 605.093 1624.5 603.5L1622.5 603.5C1622.5 605.006 1622.4 606.489 1622.21 607.942L1624.2 608.201ZM1624.5 603.5L1624.5 598.55L1622.5 598.55L1622.5 603.5L1624.5 603.5ZM1624.5 588.65L1624.5 578.75L1622.5 578.75L1622.5 588.65L1624.5 588.65ZM1624.5 568.85L1624.5 558.95L1622.5 558.95L1622.5 568.85L1624.5 568.85ZM1624.5 549.05L1624.5 539.15L1622.5 539.15L1622.5 549.05L1624.5 549.05ZM1624.5 529.25L1624.5 519.35L1622.5 519.35L1622.5 529.25L1624.5 529.25ZM1624.5 509.45L1624.5 499.55L1622.5 499.55L1622.5 509.45L1624.5 509.45ZM1624.5 489.65L1624.5 479.75L1622.5 479.75L1622.5 489.65L1624.5 489.65ZM1624.5 469.85L1624.5 459.95L1622.5 459.95L1622.5 469.85L1624.5 469.85ZM1624.5 450.05L1624.5 440.15L1622.5 440.15L1622.5 450.05L1624.5 450.05ZM1624.5 430.25L1624.5 420.35L1622.5 420.35L1622.5 430.25L1624.5 430.25ZM1624.5 410.45L1624.5 405.5L1622.5 405.5L1622.5 410.45L1624.5 410.45ZM1624.5 405.5C1624.5 403.907 1624.4 402.338 1624.2 400.799L1622.21 401.058C1622.4 402.511 1622.5 403.994 1622.5 405.5L1624.5 405.5ZM1621.77 391.719C1620.55 388.792 1618.97 386.06 1617.06 383.583L1615.48 384.802C1617.27 387.142 1618.77 389.722 1619.92 392.485L1621.77 391.719ZM1610.42 376.938C1607.94 375.035 1605.21 373.446 1602.28 372.232L1601.51 374.079C1604.28 375.226 1606.86 376.726 1609.2 378.524L1610.42 376.938ZM1593.2 369.804C1591.66 369.603 1590.09 369.5 1588.5 369.5L1588.5 371.5C1590.01 371.5 1591.49 371.598 1592.94 371.787L1593.2 369.804ZM1588.5 369.5L1583.57 369.5L1583.57 371.5L1588.5 371.5L1588.5 369.5ZM1573.7 369.5L1563.83 369.5L1563.83 371.5L1573.7 371.5L1573.7 369.5ZM1553.97 369.5L1544.1 369.5L1544.1 371.5L1553.97 371.5L1553.97 369.5ZM1534.24 369.5L1524.37 369.5L1524.37 371.5L1534.24 371.5L1534.24 369.5ZM1514.5 369.5L1504.64 369.5L1504.64 371.5L1514.5 371.5L1514.5 369.5ZM1494.77 369.5L1484.91 369.5L1484.91 371.5L1494.77 371.5L1494.77 369.5ZM1475.04 369.5L1465.17 369.5L1465.17 371.5L1475.04 371.5L1475.04 369.5ZM1455.31 369.5L1445.44 369.5L1445.44 371.5L1455.31 371.5L1455.31 369.5ZM1435.58 369.5L1425.71 369.5L1425.71 371.5L1435.58 371.5L1435.58 369.5ZM1415.84 369.5L1405.98 369.5L1405.98 371.5L1415.84 371.5L1415.84 369.5ZM1396.11 369.5L1386.25 369.5L1386.25 371.5L1396.11 371.5L1396.11 369.5ZM1376.38 369.5L1366.51 369.5L1366.51 371.5L1376.38 371.5L1376.38 369.5ZM1356.65 369.5L1346.78 369.5L1346.78 371.5L1356.65 371.5L1356.65 369.5ZM1336.92 369.5L1327.05 369.5L1327.05 371.5L1336.92 371.5L1336.92 369.5ZM1317.18 369.5L1307.32 369.5L1307.32 371.5L1317.18 371.5L1317.18 369.5ZM1297.45 369.5L1287.58 369.5L1287.58 371.5L1297.45 371.5L1297.45 369.5ZM1277.72 369.5L1267.85 369.5L1267.85 371.5L1277.72 371.5L1277.72 369.5ZM1257.99 369.5L1248.12 369.5L1248.12 371.5L1257.99 371.5L1257.99 369.5ZM1238.25 369.5L1228.39 369.5L1228.39 371.5L1238.25 371.5L1238.25 369.5ZM1218.52 369.5L1208.66 369.5L1208.66 371.5L1218.52 371.5L1218.52 369.5ZM1198.79 369.5L1188.92 369.5L1188.92 371.5L1198.79 371.5L1198.79 369.5ZM1179.06 369.5L1169.19 369.5L1169.19 371.5L1179.06 371.5L1179.06 369.5ZM1159.33 369.5L1149.46 369.5L1149.46 371.5L1159.33 371.5L1159.33 369.5ZM1139.59 369.5L1129.73 369.5L1129.73 371.5L1139.59 371.5L1139.59 369.5ZM1119.86 369.5L1109.99 369.5L1109.99 371.5L1119.86 371.5L1119.86 369.5ZM1100.13 369.5L1090.26 369.5L1090.26 371.5L1100.13 371.5L1100.13 369.5ZM1080.4 369.5L1070.53 369.5L1070.53 371.5L1080.4 371.5L1080.4 369.5ZM1060.66 369.5L1050.8 369.5L1050.8 371.5L1060.66 371.5L1060.66 369.5ZM1040.93 369.5L1036 369.5L1036 371.5L1040.93 371.5L1040.93 369.5Z" fill="black"/>
</svg>
