<svg width="650" height="710" viewBox="0 0 650 710" fill="none" xmlns="http://www.w3.org/2000/svg">
<path d="M347.905 38.425L345.205 39.275C345.03 38.175 344.105 36.55 341.73 36.55C339.93 36.55 338.68 37.75 338.68 39.1C338.68 40.225 339.38 41.075 340.755 41.375L343.305 41.9C346.43 42.525 348.105 44.5 348.105 47C348.105 49.75 345.88 52.375 341.83 52.375C337.33 52.375 335.255 49.475 334.98 46.925L337.78 46.125C337.955 47.975 339.28 49.675 341.83 49.675C343.955 49.675 345.055 48.6 345.055 47.225C345.055 46.075 344.205 45.15 342.68 44.825L340.18 44.3C337.48 43.75 335.68 41.975 335.68 39.325C335.68 36.35 338.405 33.9 341.705 33.9C345.88 33.9 347.505 36.45 347.905 38.425ZM352.825 44.575H358.8C358.75 43.15 357.8 41.875 355.8 41.875C353.975 41.875 352.925 43.275 352.825 44.575ZM359.125 47.75L361.575 48.525C360.925 50.65 359 52.375 356.075 52.375C352.775 52.375 349.85 49.975 349.85 45.85C349.85 42 352.7 39.45 355.775 39.45C359.525 39.45 361.725 41.925 361.725 45.775C361.725 46.25 361.675 46.65 361.65 46.7H352.75C352.825 48.55 354.275 49.875 356.075 49.875C357.825 49.875 358.725 48.95 359.125 47.75ZM367.397 52H364.497V33.9H367.397V52ZM373.162 44.575H379.137C379.087 43.15 378.137 41.875 376.137 41.875C374.312 41.875 373.262 43.275 373.162 44.575ZM379.462 47.75L381.912 48.525C381.262 50.65 379.337 52.375 376.412 52.375C373.112 52.375 370.187 49.975 370.187 45.85C370.187 42 373.037 39.45 376.112 39.45C379.862 39.45 382.062 41.925 382.062 45.775C382.062 46.25 382.012 46.65 381.987 46.7H373.087C373.162 48.55 374.612 49.875 376.412 49.875C378.162 49.875 379.062 48.95 379.462 47.75ZM390.133 42.125C388.358 42.125 386.783 43.45 386.783 45.9C386.783 48.35 388.358 49.725 390.183 49.725C392.083 49.725 392.958 48.4 393.233 47.475L395.783 48.4C395.208 50.3 393.383 52.375 390.183 52.375C386.608 52.375 383.883 49.6 383.883 45.9C383.883 42.15 386.608 39.45 390.108 39.45C393.383 39.45 395.183 41.5 395.683 43.45L393.083 44.4C392.808 43.325 391.983 42.125 390.133 42.125ZM402.034 36.1V39.825H404.559V42.4H402.034V48.05C402.034 49.125 402.509 49.575 403.584 49.575C403.984 49.575 404.459 49.5 404.584 49.475V51.875C404.409 51.95 403.859 52.15 402.809 52.15C400.559 52.15 399.159 50.8 399.159 48.525V42.4H396.909V39.825H397.534C398.834 39.825 399.409 39 399.409 37.925V36.1H402.034ZM417.366 36.1V39.825H419.891V42.4H417.366V48.05C417.366 49.125 417.841 49.575 418.916 49.575C419.316 49.575 419.791 49.5 419.916 49.475V51.875C419.741 51.95 419.191 52.15 418.141 52.15C415.891 52.15 414.491 50.8 414.491 48.525V42.4H412.241V39.825H412.866C414.166 39.825 414.741 39 414.741 37.925V36.1H417.366ZM425.429 44.85V52H422.529V33.9H425.429V41C426.254 39.925 427.629 39.475 428.904 39.475C431.904 39.475 433.354 41.625 433.354 44.3V52H430.454V44.8C430.454 43.3 429.779 42.1 427.954 42.1C426.354 42.1 425.479 43.3 425.429 44.85ZM438.909 44.575H444.884C444.834 43.15 443.884 41.875 441.884 41.875C440.059 41.875 439.009 43.275 438.909 44.575ZM445.209 47.75L447.659 48.525C447.009 50.65 445.084 52.375 442.159 52.375C438.859 52.375 435.934 49.975 435.934 45.85C435.934 42 438.784 39.45 441.859 39.45C445.609 39.45 447.809 41.925 447.809 45.775C447.809 46.25 447.759 46.65 447.734 46.7H438.834C438.909 48.55 440.359 49.875 442.159 49.875C443.909 49.875 444.809 48.95 445.209 47.75ZM462.082 42.125C460.307 42.125 458.732 43.45 458.732 45.9C458.732 48.35 460.307 49.725 462.132 49.725C464.032 49.725 464.907 48.4 465.182 47.475L467.732 48.4C467.157 50.3 465.332 52.375 462.132 52.375C458.557 52.375 455.832 49.6 455.832 45.9C455.832 42.15 458.557 39.45 462.057 39.45C465.332 39.45 467.132 41.5 467.632 43.45L465.032 44.4C464.757 43.325 463.932 42.125 462.082 42.125ZM475.535 49.775C477.335 49.775 478.935 48.45 478.935 45.9C478.935 43.375 477.335 42.075 475.535 42.075C473.76 42.075 472.135 43.375 472.135 45.9C472.135 48.425 473.76 49.775 475.535 49.775ZM475.535 39.45C479.185 39.45 481.86 42.175 481.86 45.9C481.86 49.65 479.185 52.375 475.535 52.375C471.91 52.375 469.235 49.65 469.235 45.9C469.235 42.175 471.91 39.45 475.535 39.45ZM487.538 52H484.663V39.825H487.438V41.375C488.138 40.125 489.663 39.475 491.038 39.475C492.638 39.475 494.038 40.2 494.688 41.625C495.638 40.025 497.063 39.475 498.638 39.475C500.838 39.475 502.938 40.875 502.938 44.1V52H500.138V44.575C500.138 43.15 499.413 42.075 497.788 42.075C496.263 42.075 495.263 43.275 495.263 44.775V52H492.413V44.575C492.413 43.175 491.713 42.075 490.063 42.075C488.513 42.075 487.538 43.225 487.538 44.775V52ZM509.364 56.75H506.489V39.825H509.289V41.475C509.889 40.425 511.289 39.55 513.164 39.55C516.764 39.55 518.789 42.3 518.789 45.9C518.789 49.55 516.564 52.3 513.064 52.3C511.314 52.3 509.989 51.55 509.364 50.625V56.75ZM515.889 45.9C515.889 43.625 514.564 42.125 512.614 42.125C510.714 42.125 509.339 43.625 509.339 45.9C509.339 48.225 510.714 49.725 512.614 49.725C514.539 49.725 515.889 48.225 515.889 45.9ZM523.602 44.575H529.577C529.527 43.15 528.577 41.875 526.577 41.875C524.752 41.875 523.702 43.275 523.602 44.575ZM529.902 47.75L532.352 48.525C531.702 50.65 529.777 52.375 526.852 52.375C523.552 52.375 520.627 49.975 520.627 45.85C520.627 42 523.477 39.45 526.552 39.45C530.302 39.45 532.502 41.925 532.502 45.775C532.502 46.25 532.452 46.65 532.427 46.7H523.527C523.602 48.55 525.052 49.875 526.852 49.875C528.602 49.875 529.502 48.95 529.902 47.75ZM538.948 36.1V39.825H541.473V42.4H538.948V48.05C538.948 49.125 539.423 49.575 540.498 49.575C540.898 49.575 541.373 49.5 541.498 49.475V51.875C541.323 51.95 540.773 52.15 539.723 52.15C537.473 52.15 536.073 50.8 536.073 48.525V42.4H533.823V39.825H534.448C535.748 39.825 536.323 39 536.323 37.925V36.1H538.948ZM547.328 52H544.453V39.825H547.328V52ZM544.003 35.55C544.003 34.5 544.853 33.65 545.878 33.65C546.928 33.65 547.778 34.5 547.778 35.55C547.778 36.6 546.928 37.425 545.878 37.425C544.853 37.425 544.003 36.6 544.003 35.55ZM554.744 36.1V39.825H557.269V42.4H554.744V48.05C554.744 49.125 555.219 49.575 556.294 49.575C556.694 49.575 557.169 49.5 557.294 49.475V51.875C557.119 51.95 556.569 52.15 555.519 52.15C553.269 52.15 551.869 50.8 551.869 48.525V42.4H549.619V39.825H550.244C551.544 39.825 552.119 39 552.119 37.925V36.1H554.744ZM563.124 52H560.249V39.825H563.124V52ZM559.799 35.55C559.799 34.5 560.649 33.65 561.674 33.65C562.724 33.65 563.574 34.5 563.574 35.55C563.574 36.6 562.724 37.425 561.674 37.425C560.649 37.425 559.799 36.6 559.799 35.55ZM572.215 49.775C574.015 49.775 575.615 48.45 575.615 45.9C575.615 43.375 574.015 42.075 572.215 42.075C570.44 42.075 568.815 43.375 568.815 45.9C568.815 48.425 570.44 49.775 572.215 49.775ZM572.215 39.45C575.865 39.45 578.54 42.175 578.54 45.9C578.54 49.65 575.865 52.375 572.215 52.375C568.59 52.375 565.915 49.65 565.915 45.9C565.915 42.175 568.59 39.45 572.215 39.45ZM584.242 44.975V52H581.342V39.825H584.167V41.45C584.967 40.05 586.417 39.475 587.767 39.475C590.742 39.475 592.167 41.625 592.167 44.3V52H589.267V44.8C589.267 43.3 588.592 42.1 586.767 42.1C585.117 42.1 584.242 43.375 584.242 44.975ZM605.599 56.925H602.499L605.424 50.55L600.224 39.825H603.499L606.999 47.525L610.274 39.825H613.349L605.599 56.925ZM620.262 49.775C622.062 49.775 623.662 48.45 623.662 45.9C623.662 43.375 622.062 42.075 620.262 42.075C618.487 42.075 616.862 43.375 616.862 45.9C616.862 48.425 618.487 49.775 620.262 49.775ZM620.262 39.45C623.912 39.45 626.587 42.175 626.587 45.9C626.587 49.65 623.912 52.375 620.262 52.375C616.637 52.375 613.962 49.65 613.962 45.9C613.962 42.175 616.637 39.45 620.262 39.45ZM637.241 50.65C636.641 51.75 635.216 52.35 633.791 52.35C630.891 52.35 629.191 50.2 629.191 47.5V39.825H632.091V46.975C632.091 48.475 632.791 49.75 634.541 49.75C636.216 49.75 637.091 48.625 637.091 47.025V39.825H639.991V49.775C639.991 50.775 640.066 51.55 640.116 52H637.341C637.291 51.725 637.241 51.15 637.241 50.65ZM372.031 71.825H375.031L377.906 80.25L380.331 71.825H383.281L379.381 84H376.481L373.456 75.25L370.506 84H367.531L363.581 71.825H366.681L369.156 80.25L372.031 71.825ZM388.368 84H385.493V71.825H388.368V84ZM385.043 67.55C385.043 66.5 385.893 65.65 386.918 65.65C387.968 65.65 388.818 66.5 388.818 67.55C388.818 68.6 387.968 69.425 386.918 69.425C385.893 69.425 385.043 68.6 385.043 67.55ZM391.034 80.7L393.559 80C393.659 81.1 394.484 82.075 396.034 82.075C397.234 82.075 397.859 81.425 397.859 80.675C397.859 80.025 397.409 79.525 396.434 79.325L394.634 78.925C392.484 78.45 391.359 77.05 391.359 75.375C391.359 73.25 393.309 71.45 395.834 71.45C399.234 71.45 400.334 73.65 400.534 74.85L398.084 75.55C397.984 74.85 397.459 73.725 395.834 73.725C394.809 73.725 394.084 74.375 394.084 75.125C394.084 75.775 394.559 76.25 395.309 76.4L397.159 76.775C399.459 77.275 400.659 78.675 400.659 80.475C400.659 82.325 399.159 84.375 396.059 84.375C392.534 84.375 391.184 82.075 391.034 80.7ZM406.435 76.85V84H403.535V65.9H406.435V73C407.26 71.925 408.635 71.475 409.91 71.475C412.91 71.475 414.36 73.625 414.36 76.3V84H411.46V76.8C411.46 75.3 410.785 74.1 408.96 74.1C407.36 74.1 406.485 75.3 406.435 76.85ZM427.766 68.1V71.825H430.291V74.4H427.766V80.05C427.766 81.125 428.241 81.575 429.316 81.575C429.716 81.575 430.191 81.5 430.316 81.475V83.875C430.141 83.95 429.591 84.15 428.541 84.15C426.291 84.15 424.891 82.8 424.891 80.525V74.4H422.641V71.825H423.266C424.566 71.825 425.141 71 425.141 69.925V68.1H427.766ZM438.499 81.775C440.299 81.775 441.899 80.45 441.899 77.9C441.899 75.375 440.299 74.075 438.499 74.075C436.724 74.075 435.099 75.375 435.099 77.9C435.099 80.425 436.724 81.775 438.499 81.775ZM438.499 71.45C442.149 71.45 444.824 74.175 444.824 77.9C444.824 81.65 442.149 84.375 438.499 84.375C434.874 84.375 432.199 81.65 432.199 77.9C432.199 74.175 434.874 71.45 438.499 71.45ZM456.703 88.75H453.828V71.825H456.628V73.475C457.228 72.425 458.628 71.55 460.503 71.55C464.103 71.55 466.128 74.3 466.128 77.9C466.128 81.55 463.903 84.3 460.403 84.3C458.653 84.3 457.328 83.55 456.703 82.625V88.75ZM463.228 77.9C463.228 75.625 461.903 74.125 459.953 74.125C458.053 74.125 456.678 75.625 456.678 77.9C456.678 80.225 458.053 81.725 459.953 81.725C461.878 81.725 463.228 80.225 463.228 77.9ZM468.166 80.7C468.166 78.525 469.766 77.325 471.841 77.025L474.966 76.55C475.666 76.45 475.866 76.1 475.866 75.675C475.866 74.65 475.166 73.825 473.566 73.825C472.041 73.825 471.191 74.8 471.066 76.025L468.416 75.425C468.641 73.325 470.541 71.45 473.541 71.45C477.291 71.45 478.716 73.575 478.716 76V82.05C478.716 83.15 478.841 83.875 478.866 84H476.166C476.141 83.925 476.041 83.425 476.041 82.45C475.466 83.375 474.266 84.375 472.291 84.375C469.741 84.375 468.166 82.625 468.166 80.7ZM472.841 82.1C474.466 82.1 475.866 81.325 475.866 78.95V78.4L472.691 78.875C471.791 79.025 471.066 79.525 471.066 80.525C471.066 81.35 471.691 82.1 472.841 82.1ZM489.346 71.75V74.7C489.021 74.65 488.696 74.625 488.396 74.625C486.146 74.625 485.121 75.925 485.121 78.2V84H482.221V71.825H485.046V73.775C485.621 72.45 486.971 71.675 488.571 71.675C488.921 71.675 489.221 71.725 489.346 71.75ZM495.979 68.1V71.825H498.504V74.4H495.979V80.05C495.979 81.125 496.454 81.575 497.529 81.575C497.929 81.575 498.404 81.5 498.529 81.475V83.875C498.354 83.95 497.804 84.15 496.754 84.15C494.504 84.15 493.104 82.8 493.104 80.525V74.4H490.854V71.825H491.479C492.779 71.825 493.354 71 493.354 69.925V68.1H495.979ZM504.359 84H501.484V71.825H504.359V84ZM501.034 67.55C501.034 66.5 501.884 65.65 502.909 65.65C503.959 65.65 504.809 66.5 504.809 67.55C504.809 68.6 503.959 69.425 502.909 69.425C501.884 69.425 501.034 68.6 501.034 67.55ZM513.4 74.125C511.625 74.125 510.05 75.45 510.05 77.9C510.05 80.35 511.625 81.725 513.45 81.725C515.35 81.725 516.225 80.4 516.5 79.475L519.05 80.4C518.475 82.3 516.65 84.375 513.45 84.375C509.875 84.375 507.15 81.6 507.15 77.9C507.15 74.15 509.875 71.45 513.375 71.45C516.65 71.45 518.45 73.5 518.95 75.45L516.35 76.4C516.075 75.325 515.25 74.125 513.4 74.125ZM524.5 84H521.625V71.825H524.5V84ZM521.175 67.55C521.175 66.5 522.025 65.65 523.05 65.65C524.1 65.65 524.95 66.5 524.95 67.55C524.95 68.6 524.1 69.425 523.05 69.425C522.025 69.425 521.175 68.6 521.175 67.55ZM531.117 88.75H528.242V71.825H531.042V73.475C531.642 72.425 533.042 71.55 534.917 71.55C538.517 71.55 540.542 74.3 540.542 77.9C540.542 81.55 538.317 84.3 534.817 84.3C533.067 84.3 531.742 83.55 531.117 82.625V88.75ZM537.642 77.9C537.642 75.625 536.317 74.125 534.367 74.125C532.467 74.125 531.092 75.625 531.092 77.9C531.092 80.225 532.467 81.725 534.367 81.725C536.292 81.725 537.642 80.225 537.642 77.9ZM542.58 80.7C542.58 78.525 544.18 77.325 546.255 77.025L549.38 76.55C550.08 76.45 550.28 76.1 550.28 75.675C550.28 74.65 549.58 73.825 547.98 73.825C546.455 73.825 545.605 74.8 545.48 76.025L542.83 75.425C543.055 73.325 544.955 71.45 547.955 71.45C551.705 71.45 553.13 73.575 553.13 76V82.05C553.13 83.15 553.255 83.875 553.28 84H550.58C550.555 83.925 550.455 83.425 550.455 82.45C549.88 83.375 548.68 84.375 546.705 84.375C544.155 84.375 542.58 82.625 542.58 80.7ZM547.255 82.1C548.88 82.1 550.28 81.325 550.28 78.95V78.4L547.105 78.875C546.205 79.025 545.48 79.525 545.48 80.525C545.48 81.35 546.105 82.1 547.255 82.1ZM560.261 68.1V71.825H562.786V74.4H560.261V80.05C560.261 81.125 560.736 81.575 561.811 81.575C562.211 81.575 562.686 81.5 562.811 81.475V83.875C562.636 83.95 562.086 84.15 561.036 84.15C558.786 84.15 557.386 82.8 557.386 80.525V74.4H555.136V71.825H555.761C557.061 71.825 557.636 71 557.636 69.925V68.1H560.261ZM567.669 76.575H573.644C573.594 75.15 572.644 73.875 570.644 73.875C568.819 73.875 567.769 75.275 567.669 76.575ZM573.969 79.75L576.419 80.525C575.769 82.65 573.844 84.375 570.919 84.375C567.619 84.375 564.694 81.975 564.694 77.85C564.694 74 567.544 71.45 570.619 71.45C574.369 71.45 576.569 73.925 576.569 77.775C576.569 78.25 576.519 78.65 576.494 78.7H567.594C567.669 80.55 569.119 81.875 570.919 81.875C572.669 81.875 573.569 80.95 573.969 79.75ZM588.417 84H585.542V71.825H588.417V84ZM585.092 67.55C585.092 66.5 585.942 65.65 586.967 65.65C588.017 65.65 588.867 66.5 588.867 67.55C588.867 68.6 588.017 69.425 586.967 69.425C585.942 69.425 585.092 68.6 585.092 67.55ZM595.058 76.975V84H592.158V71.825H594.983V73.45C595.783 72.05 597.233 71.475 598.583 71.475C601.558 71.475 602.983 73.625 602.983 76.3V84H600.083V76.8C600.083 75.3 599.408 74.1 597.583 74.1C595.933 74.1 595.058 75.375 595.058 76.975ZM610.438 66.275L609.738 78.75H607.638L606.913 66.275H610.438ZM606.863 82.35C606.863 81.35 607.663 80.5 608.663 80.5C609.688 80.5 610.513 81.35 610.513 82.35C610.513 83.35 609.688 84.175 608.663 84.175C607.663 84.175 606.863 83.35 606.863 82.35Z" fill="black"/>
<path d="M481.625 205.5C474.875 205.5 470.25 209.25 463.75 217.25L450.25 206.375C458.875 194.625 467.25 188.25 482.875 188.25C501.5 188.25 513 199 513 215.375C513 230 505.5 237.375 490 249.375L475.75 260.375H513.875V277H449.125V261.75L478.25 237.875C489.125 228.875 493.375 224.125 493.375 216.875C493.375 209.5 488.5 205.5 481.625 205.5ZM548.881 277H528.631V257H548.881V277Z" fill="#003149"/>
<circle cx="487.5" cy="242.5" r="113" stroke="black" stroke-width="5" stroke-dasharray="10 10"/>
<path d="M173.5 57L173.5 58L173.5 57ZM208.5 92L207.5 92L208.5 92ZM208.5 190.609L207.5 190.609L207.5 190.609L208.5 190.609ZM243.5 225.609L243.5 224.609L243.5 225.609ZM354.707 226.316C355.098 225.926 355.098 225.293 354.707 224.902L348.343 218.538C347.953 218.148 347.32 218.148 346.929 218.538C346.539 218.929 346.539 219.562 346.929 219.952L352.586 225.609L346.929 231.266C346.539 231.657 346.539 232.29 346.929 232.68C347.32 233.071 347.953 233.071 348.343 232.68L354.707 226.316ZM76 58L80.875 58L80.875 56L76 56L76 58ZM90.625 58L100.375 58L100.375 56L90.625 56L90.625 58ZM110.125 58L119.875 58L119.875 56L110.125 56L110.125 58ZM129.625 58L139.375 58L139.375 56L129.625 56L129.625 58ZM149.125 58L158.875 58L158.875 56L149.125 56L149.125 58ZM168.625 58L173.5 58L173.5 56L168.625 56L168.625 58ZM173.5 58C175.006 58 176.489 58.0979 177.942 58.2875L178.201 56.3043C176.662 56.1035 175.093 56 173.5 56L173.5 58ZM186.515 60.5796C189.278 61.7256 191.858 63.2258 194.198 65.024L195.417 63.4381C192.94 61.5347 190.208 59.946 187.281 58.7321L186.515 60.5796ZM200.476 71.3019C202.274 73.6418 203.774 76.2219 204.92 78.9855L206.768 78.2194C205.554 75.2921 203.965 72.5602 202.062 70.0833L200.476 71.3019ZM207.213 87.558C207.402 89.0114 207.5 90.494 207.5 92L209.5 92C209.5 90.4073 209.397 88.8383 209.196 87.2994L207.213 87.558ZM207.5 92L207.5 96.9305L209.5 96.9305L209.5 92L207.5 92ZM207.5 106.791L207.5 116.652L209.5 116.652L209.5 106.791L207.5 106.791ZM207.5 126.513L207.5 136.374L209.5 136.374L209.5 126.513L207.5 126.513ZM207.5 146.235L207.5 156.096L209.5 156.096L209.5 146.235L207.5 146.235ZM207.5 165.957L207.5 175.818L209.5 175.818L209.5 165.957L207.5 165.957ZM207.5 185.679L207.5 190.609L209.5 190.609L209.5 185.679L207.5 185.679ZM207.5 190.609C207.5 192.202 207.604 193.771 207.804 195.31L209.787 195.051C209.598 193.598 209.5 192.115 209.5 190.609L207.5 190.609ZM210.232 204.39C211.446 207.317 213.035 210.049 214.938 212.526L216.524 211.307C214.726 208.968 213.226 206.387 212.08 203.624L210.232 204.39ZM221.583 219.171C224.06 221.075 226.792 222.663 229.719 223.877L230.485 222.03C227.722 220.884 225.142 219.384 222.802 217.585L221.583 219.171ZM238.799 226.305C240.338 226.506 241.907 226.609 243.5 226.609L243.5 224.609C241.994 224.609 240.511 224.511 239.058 224.322L238.799 226.305ZM243.5 226.609L248.104 226.609L248.104 224.609L243.5 224.609L243.5 226.609ZM257.313 226.609L266.521 226.609L266.521 224.609L257.313 224.609L257.313 226.609ZM275.729 226.609L284.938 226.609L284.938 224.609L275.729 224.609L275.729 226.609ZM294.146 226.609L303.354 226.609L303.354 224.609L294.146 224.609L294.146 226.609ZM312.563 226.609L321.771 226.609L321.771 224.609L312.563 224.609L312.563 226.609ZM330.979 226.609L340.188 226.609L340.188 224.609L330.979 224.609L330.979 226.609ZM349.396 226.609L354 226.609L354 224.609L349.396 224.609L349.396 226.609ZM173.5 57L173.5 59L173.5 57ZM208.5 92L206.5 92L208.5 92ZM208.5 190.609L206.5 190.609L208.5 190.609ZM243.5 225.609L243.5 223.609L243.5 223.609L243.5 225.609ZM355.414 227.024C356.195 226.242 356.195 224.976 355.414 224.195L342.686 211.467C341.905 210.686 340.639 210.686 339.858 211.467C339.077 212.248 339.077 213.515 339.858 214.296L351.172 225.609L339.858 236.923C339.077 237.704 339.077 238.97 339.858 239.751C340.639 240.532 341.905 240.533 342.686 239.751L355.414 227.024ZM76 59L80.875 59L80.875 55L76 55L76 59ZM90.625 59L100.375 59L100.375 55L90.625 55L90.625 59ZM110.125 59L119.875 59L119.875 55L110.125 55L110.125 59ZM129.625 59L139.375 59L139.375 55L129.625 55L129.625 59ZM149.125 59L158.875 59L158.875 55L149.125 55L149.125 59ZM168.625 59L173.5 59L173.5 55L168.625 55L168.625 59ZM173.5 59C174.963 59 176.402 59.0951 177.813 59.2791L178.33 55.3127C176.748 55.1063 175.136 55 173.5 55L173.5 59ZM186.131 61.5033C188.813 62.6154 191.317 64.0714 193.589 65.8169L196.026 62.6452C193.481 60.6892 190.673 59.0562 187.664 57.8084L186.131 61.5033ZM199.683 71.9112C201.429 74.1827 202.885 76.6868 203.997 79.3686L207.692 77.8363C206.444 74.8272 204.811 72.0193 202.855 69.4739L199.683 71.9112ZM206.221 87.6874C206.405 89.098 206.5 90.5374 206.5 92L210.5 92C210.5 90.3639 210.394 88.7517 210.187 87.17L206.221 87.6874ZM206.5 92L206.5 96.9305L210.5 96.9305L210.5 92L206.5 92ZM206.5 106.791L206.5 116.652L210.5 116.652L210.5 106.791L206.5 106.791ZM206.5 126.513L206.5 136.374L210.5 136.374L210.5 126.513L206.5 126.513ZM206.5 146.235L206.5 156.096L210.5 156.096L210.5 146.235L206.5 146.235ZM206.5 165.957L206.5 175.818L210.5 175.818L210.5 165.957L206.5 165.957ZM206.5 185.679L206.5 190.609L210.5 190.609L210.5 185.679L206.5 185.679ZM206.5 190.609C206.5 192.245 206.606 193.858 206.813 195.439L210.779 194.922C210.595 193.511 210.5 192.072 210.5 190.609L206.5 190.609ZM209.308 204.773C210.556 207.782 212.189 210.59 214.145 213.135L217.317 210.698C215.571 208.427 214.115 205.923 213.003 203.241L209.308 204.773ZM220.974 219.964C223.519 221.92 226.327 223.553 229.336 224.801L230.869 221.106C228.187 219.994 225.683 218.538 223.411 216.792L220.974 219.964ZM238.67 227.297C240.252 227.503 241.864 227.609 243.5 227.609L243.5 223.609C242.037 223.609 240.598 223.514 239.187 223.33L238.67 227.297ZM243.5 227.609L248.104 227.609L248.104 223.609L243.5 223.609L243.5 227.609ZM257.313 227.609L266.521 227.609L266.521 223.609L257.313 223.609L257.313 227.609ZM275.729 227.609L284.938 227.609L284.938 223.609L275.729 223.609L275.729 227.609ZM294.146 227.609L303.354 227.609L303.354 223.609L294.146 223.609L294.146 227.609ZM312.563 227.609L321.771 227.609L321.771 223.609L312.563 223.609L312.563 227.609ZM330.979 227.609L340.188 227.609L340.188 223.609L330.979 223.609L330.979 227.609ZM349.396 227.609L354 227.609L354 223.609L349.396 223.609L349.396 227.609Z" fill="black"/>
<path d="M483.387 413.5L482.387 413.5L483.387 413.5ZM448.387 448.5L448.387 447.5L448.387 448.5ZM77.0001 448.5L77.0001 447.5L77.0001 448.5ZM42.0001 483.5L43.0001 483.5L42.0001 483.5ZM41.293 546.207C41.6835 546.598 42.3167 546.598 42.7072 546.207L49.0712 539.843C49.4617 539.453 49.4617 538.819 49.0712 538.429C48.6806 538.038 48.0475 538.038 47.657 538.429L42.0001 544.086L36.3432 538.429C35.9527 538.038 35.3196 538.038 34.929 538.429C34.5385 538.819 34.5385 539.453 34.929 539.843L41.293 546.207ZM43.0001 545.5L43.0001 540.333L41.0001 540.333L41.0001 545.5L43.0001 545.5ZM43.0001 530L43.0001 519.667L41.0001 519.667L41.0001 530L43.0001 530ZM43.0001 509.333L43.0001 499L41.0001 499L41.0001 509.333L43.0001 509.333ZM43.0001 488.667L43.0001 483.5L41.0001 483.5L41.0001 488.667L43.0001 488.667ZM43.0001 483.5C43.0001 481.994 43.098 480.511 43.2875 479.058L41.3043 478.799C41.1036 480.338 41.0001 481.907 41.0001 483.5L43.0001 483.5ZM45.5796 470.486C46.7257 467.722 48.2259 465.142 50.024 462.802L48.4382 461.583C46.5348 464.06 44.9461 466.792 43.7322 469.719L45.5796 470.486ZM56.302 456.524C58.6419 454.726 61.222 453.226 63.9856 452.08L63.2195 450.232C60.2922 451.446 57.5602 453.035 55.0833 454.938L56.302 456.524ZM72.5581 449.787C74.0115 449.598 75.4941 449.5 77.0001 449.5L77.0001 447.5C75.4074 447.5 73.8383 447.604 72.2994 447.804L72.5581 449.787ZM77.0001 449.5L81.8867 449.5L81.8867 447.5L77.0001 447.5L77.0001 449.5ZM91.6601 449.5L101.433 449.5L101.433 447.5L91.6601 447.5L91.6601 449.5ZM111.207 449.5L120.98 449.5L120.98 447.5L111.207 447.5L111.207 449.5ZM130.753 449.5L140.527 449.5L140.527 447.5L130.753 447.5L130.753 449.5ZM150.3 449.5L160.073 449.5L160.073 447.5L150.3 447.5L150.3 449.5ZM169.847 449.5L179.62 449.5L179.62 447.5L169.847 447.5L169.847 449.5ZM189.393 449.5L199.167 449.5L199.167 447.5L189.393 447.5L189.393 449.5ZM208.94 449.5L218.713 449.5L218.713 447.5L208.94 447.5L208.94 449.5ZM228.487 449.5L238.26 449.5L238.26 447.5L228.487 447.5L228.487 449.5ZM248.033 449.5L257.807 449.5L257.807 447.5L248.033 447.5L248.033 449.5ZM267.58 449.5L277.353 449.5L277.353 447.5L267.58 447.5L267.58 449.5ZM287.127 449.5L296.9 449.5L296.9 447.5L287.127 447.5L287.127 449.5ZM306.673 449.5L316.447 449.5L316.447 447.5L306.673 447.5L306.673 449.5ZM326.22 449.5L335.993 449.5L335.993 447.5L326.22 447.5L326.22 449.5ZM345.767 449.5L355.54 449.5L355.54 447.5L345.767 447.5L345.767 449.5ZM365.313 449.5L375.087 449.5L375.087 447.5L365.313 447.5L365.313 449.5ZM384.86 449.5L394.633 449.5L394.633 447.5L384.86 447.5L384.86 449.5ZM404.407 449.5L414.18 449.5L414.18 447.5L404.407 447.5L404.407 449.5ZM423.953 449.5L433.727 449.5L433.727 447.5L423.953 447.5L423.953 449.5ZM443.5 449.5L448.387 449.5L448.387 447.5L443.5 447.5L443.5 449.5ZM448.387 449.5C449.979 449.5 451.548 449.396 453.087 449.196L452.829 447.213C451.375 447.402 449.893 447.5 448.387 447.5L448.387 449.5ZM462.167 446.768C465.095 445.554 467.826 443.965 470.303 442.062L469.085 440.476C466.745 442.274 464.165 443.774 461.401 444.92L462.167 446.768ZM476.949 435.417C478.852 432.94 480.441 430.208 481.655 427.281L479.807 426.514C478.661 429.278 477.161 431.858 475.363 434.198L476.949 435.417ZM484.082 418.201C484.283 416.662 484.387 415.093 484.387 413.5L482.387 413.5C482.387 415.006 482.289 416.489 482.099 417.942L484.082 418.201ZM484.387 413.5L484.387 408.657L482.387 408.657L482.387 413.5L484.387 413.5ZM484.387 398.972L484.387 389.286L482.387 389.286L482.387 398.972L484.387 398.972ZM484.387 379.601L484.387 369.915L482.387 369.915L482.387 379.601L484.387 379.601ZM484.387 360.23L484.387 355.387L482.387 355.387L482.387 360.23L484.387 360.23ZM483.387 413.5L481.387 413.5L483.387 413.5ZM448.387 448.5L448.387 446.5L448.387 448.5ZM77.0001 448.5L77.0001 446.5L77.0001 448.5ZM42.0001 483.5L44.0001 483.5L42.0001 483.5ZM40.5859 546.914C41.3669 547.695 42.6333 547.695 43.4143 546.914L56.1422 534.186C56.9233 533.405 56.9233 532.139 56.1422 531.358C55.3612 530.577 54.0949 530.577 53.3138 531.358L42.0001 542.672L30.6864 531.358C29.9053 530.577 28.639 530.577 27.858 531.358C27.0769 532.139 27.0769 533.405 27.858 534.186L40.5859 546.914ZM44.0001 545.5L44.0001 540.333L40.0001 540.333L40.0001 545.5L44.0001 545.5ZM44.0001 530L44.0001 519.667L40.0001 519.667L40.0001 530L44.0001 530ZM44.0001 509.333L44.0001 499L40.0001 499L40.0001 509.333L44.0001 509.333ZM44.0001 488.667L44.0001 483.5L40.0001 483.5L40.0001 488.667L44.0001 488.667ZM44.0001 483.5C44.0001 482.037 44.0951 480.598 44.2791 479.187L40.3127 478.67C40.1064 480.252 40.0001 481.864 40.0001 483.5L44.0001 483.5ZM46.5034 470.869C47.6154 468.187 49.0715 465.683 50.817 463.411L47.6453 460.974C45.6892 463.519 44.0563 466.327 42.8085 469.336L46.5034 470.869ZM56.9113 457.317C59.1827 455.571 61.6869 454.115 64.3686 453.003L62.8364 449.308C59.8273 450.556 57.0194 452.189 54.474 454.145L56.9113 457.317ZM72.6874 450.779C74.098 450.595 75.5375 450.5 77.0001 450.5L77.0001 446.5C75.364 446.5 73.7517 446.606 72.1701 446.813L72.6874 450.779ZM77.0001 450.5L81.8867 450.5L81.8867 446.5L77.0001 446.5L77.0001 450.5ZM91.6601 450.5L101.433 450.5L101.433 446.5L91.6601 446.5L91.6601 450.5ZM111.207 450.5L120.98 450.5L120.98 446.5L111.207 446.5L111.207 450.5ZM130.753 450.5L140.527 450.5L140.527 446.5L130.753 446.5L130.753 450.5ZM150.3 450.5L160.073 450.5L160.073 446.5L150.3 446.5L150.3 450.5ZM169.847 450.5L179.62 450.5L179.62 446.5L169.847 446.5L169.847 450.5ZM189.393 450.5L199.167 450.5L199.167 446.5L189.393 446.5L189.393 450.5ZM208.94 450.5L218.713 450.5L218.713 446.5L208.94 446.5L208.94 450.5ZM228.487 450.5L238.26 450.5L238.26 446.5L228.487 446.5L228.487 450.5ZM248.033 450.5L257.807 450.5L257.807 446.5L248.033 446.5L248.033 450.5ZM267.58 450.5L277.353 450.5L277.353 446.5L267.58 446.5L267.58 450.5ZM287.127 450.5L296.9 450.5L296.9 446.5L287.127 446.5L287.127 450.5ZM306.673 450.5L316.447 450.5L316.447 446.5L306.673 446.5L306.673 450.5ZM326.22 450.5L335.993 450.5L335.993 446.5L326.22 446.5L326.22 450.5ZM345.767 450.5L355.54 450.5L355.54 446.5L345.767 446.5L345.767 450.5ZM365.313 450.5L375.087 450.5L375.087 446.5L365.313 446.5L365.313 450.5ZM384.86 450.5L394.633 450.5L394.633 446.5L384.86 446.5L384.86 450.5ZM404.407 450.5L414.18 450.5L414.18 446.5L404.407 446.5L404.407 450.5ZM423.953 450.5L433.727 450.5L433.727 446.5L423.953 446.5L423.953 450.5ZM443.5 450.5L448.387 450.5L448.387 446.5L443.5 446.5L443.5 450.5ZM448.387 450.5C450.023 450.5 451.635 450.394 453.217 450.187L452.699 446.221C451.289 446.405 449.849 446.5 448.387 446.5L448.387 450.5ZM462.55 447.692C465.559 446.444 468.367 444.811 470.913 442.855L468.475 439.683C466.204 441.429 463.7 442.885 461.018 443.997L462.55 447.692ZM477.741 436.026C479.697 433.481 481.33 430.673 482.578 427.664L478.883 426.131C477.771 428.813 476.315 431.317 474.57 433.589L477.741 436.026ZM485.074 418.33C485.28 416.748 485.387 415.136 485.387 413.5L481.387 413.5C481.387 414.963 481.292 416.402 481.108 417.813L485.074 418.33ZM485.387 413.5L485.387 408.657L481.387 408.657L481.387 413.5L485.387 413.5ZM485.387 398.972L485.387 389.286L481.387 389.286L481.387 398.972L485.387 398.972ZM485.387 379.601L485.387 369.915L481.387 369.915L481.387 379.601L485.387 379.601ZM485.387 360.23L485.387 355.387L481.387 355.387L481.387 360.23L485.387 360.23Z" fill="black"/>
</svg>
